<?xml version="1.0" encoding="utf-8" standalone="no"?>
<!DOCTYPE svg PUBLIC "-//W3C//DTD SVG 1.1//EN"
  "http://www.w3.org/Graphics/SVG/1.1/DTD/svg11.dtd">
<svg xmlns:xlink="http://www.w3.org/1999/xlink" width="86.4pt" height="100.8pt" viewBox="0 0 86.4 100.8" xmlns="http://www.w3.org/2000/svg" version="1.1">
 <metadata>
  <rdf:RDF xmlns:dc="http://purl.org/dc/elements/1.1/" xmlns:cc="http://creativecommons.org/ns#" xmlns:rdf="http://www.w3.org/1999/02/22-rdf-syntax-ns#">
   <cc:Work>
    <dc:type rdf:resource="http://purl.org/dc/dcmitype/StillImage"/>
    <dc:date>2024-09-12T15:31:59.703165</dc:date>
    <dc:format>image/svg+xml</dc:format>
    <dc:creator>
     <cc:Agent>
      <dc:title>Matplotlib v3.8.4, https://matplotlib.org/</dc:title>
     </cc:Agent>
    </dc:creator>
   </cc:Work>
  </rdf:RDF>
 </metadata>
 <defs>
  <style type="text/css">*{stroke-linejoin: round; stroke-linecap: butt}</style>
 </defs>
 <g id="figure_1">
  <g id="patch_1">
   <path d="M 0 100.8 
L 86.4 100.8 
L 86.4 0 
L 0 0 
z
" style="fill: #ffffff"/>
  </g>
  <g id="axes_1">
   <g id="patch_2">
    <path d="M 10.8 89.712 
L 77.76 89.712 
L 77.76 12.096 
L 10.8 12.096 
z
" style="fill: #ffffff"/>
   </g>
   <g id="matplotlib.axis_1">
    <g id="xtick_1">
     <g id="line2d_1">
      <defs>
       <path id="mc1c33a1402" d="M 0 0 
L 0 2 
" style="stroke: #000000; stroke-width: 0.8"/>
      </defs>
      <g>
       <use xlink:href="#mc1c33a1402" x="17.496" y="89.712" style="stroke: #000000; stroke-width: 0.8"/>
      </g>
     </g>
     <g id="text_1">
      <text style="font: 6px 'Arial', sans-serif; text-anchor: middle" x="17.496" y="98.006687" transform="rotate(-0 17.496 98.006687)">4</text>
     </g>
    </g>
    <g id="xtick_2">
     <g id="line2d_2">
      <g>
       <use xlink:href="#mc1c33a1402" x="30.888" y="89.712" style="stroke: #000000; stroke-width: 0.8"/>
      </g>
     </g>
     <g id="text_2">
      <text style="font: 6px 'Arial', sans-serif; text-anchor: middle" x="30.888" y="98.006687" transform="rotate(-0 30.888 98.006687)">8</text>
     </g>
    </g>
    <g id="xtick_3">
     <g id="line2d_3">
      <g>
       <use xlink:href="#mc1c33a1402" x="44.28" y="89.712" style="stroke: #000000; stroke-width: 0.8"/>
      </g>
     </g>
     <g id="text_3">
      <text style="font: 6px 'Arial', sans-serif; text-anchor: middle" x="44.28" y="98.006687" transform="rotate(-0 44.28 98.006687)">16</text>
     </g>
    </g>
    <g id="xtick_4">
     <g id="line2d_4">
      <g>
       <use xlink:href="#mc1c33a1402" x="57.672" y="89.712" style="stroke: #000000; stroke-width: 0.8"/>
      </g>
     </g>
     <g id="text_4">
      <text style="font: 6px 'Arial', sans-serif; text-anchor: middle" x="57.672" y="98.006687" transform="rotate(-0 57.672 98.006687)">32</text>
     </g>
    </g>
    <g id="xtick_5">
     <g id="line2d_5">
      <g>
       <use xlink:href="#mc1c33a1402" x="71.064" y="89.712" style="stroke: #000000; stroke-width: 0.8"/>
      </g>
     </g>
     <g id="text_5">
      <text style="font: 6px 'Arial', sans-serif; text-anchor: middle" x="71.064" y="98.006687" transform="rotate(-0 71.064 98.006687)">64</text>
     </g>
    </g>
    <g id="text_6">
     <text style="font: 7px 'Arial', sans-serif; text-anchor: middle" x="44.28" y="104.294969" transform="rotate(-0 44.28 104.294969)">Frequency (kHz)</text>
    </g>
   </g>
   <g id="matplotlib.axis_2">
    <g id="ytick_1">
     <g id="line2d_6">
      <defs>
       <path id="ma2c98bbfaa" d="M 0 0 
L -2 0 
" style="stroke: #000000; stroke-width: 0.8"/>
      </defs>
      <g>
       <use xlink:href="#ma2c98bbfaa" x="10.8" y="89.712" style="stroke: #000000; stroke-width: 0.8"/>
      </g>
     </g>
     <g id="text_7">
      <text style="font: 6px 'Arial', sans-serif; text-anchor: end" x="6.8" y="91.859344" transform="rotate(-0 6.8 91.859344)">0</text>
     </g>
    </g>
    <g id="ytick_2">
     <g id="line2d_7">
      <g>
       <use xlink:href="#ma2c98bbfaa" x="10.8" y="74.1888" style="stroke: #000000; stroke-width: 0.8"/>
      </g>
     </g>
     <g id="text_8">
      <text style="font: 6px 'Arial', sans-serif; text-anchor: end" x="6.8" y="76.336144" transform="rotate(-0 6.8 76.336144)">20</text>
     </g>
    </g>
    <g id="ytick_3">
     <g id="line2d_8">
      <g>
       <use xlink:href="#ma2c98bbfaa" x="10.8" y="58.6656" style="stroke: #000000; stroke-width: 0.8"/>
      </g>
     </g>
     <g id="text_9">
      <text style="font: 6px 'Arial', sans-serif; text-anchor: end" x="6.8" y="60.812944" transform="rotate(-0 6.8 60.812944)">40</text>
     </g>
    </g>
    <g id="ytick_4">
     <g id="line2d_9">
      <g>
       <use xlink:href="#ma2c98bbfaa" x="10.8" y="43.1424" style="stroke: #000000; stroke-width: 0.8"/>
      </g>
     </g>
     <g id="text_10">
      <text style="font: 6px 'Arial', sans-serif; text-anchor: end" x="6.8" y="45.289744" transform="rotate(-0 6.8 45.289744)">60</text>
     </g>
    </g>
    <g id="ytick_5">
     <g id="line2d_10">
      <g>
       <use xlink:href="#ma2c98bbfaa" x="10.8" y="27.6192" style="stroke: #000000; stroke-width: 0.8"/>
      </g>
     </g>
     <g id="text_11">
      <text style="font: 6px 'Arial', sans-serif; text-anchor: end" x="6.8" y="29.766544" transform="rotate(-0 6.8 29.766544)">80</text>
     </g>
    </g>
    <g id="ytick_6">
     <g id="line2d_11">
      <g>
       <use xlink:href="#ma2c98bbfaa" x="10.8" y="12.096" style="stroke: #000000; stroke-width: 0.8"/>
      </g>
     </g>
     <g id="text_12">
      <text style="font: 6px 'Arial', sans-serif; text-anchor: end" x="6.8" y="14.243344" transform="rotate(-0 6.8 14.243344)">100</text>
     </g>
    </g>
    <g id="text_13">
     <text style="font: 7px 'Arial', sans-serif; text-anchor: middle" x="-4.682969" y="50.904" transform="rotate(-90 -4.682969 50.904)">Accuracy (%)</text>
    </g>
   </g>
   <g id="line2d_12">
    <path d="M 17.496 25.6788 
L 30.888 30.28725 
L 44.28 26.89155 
L 57.672 26.89155 
L 71.064 35.62335 
" clip-path="url(#p6bec714348)" style="fill: none; stroke: #dd0000; stroke-linecap: square"/>
    <defs>
     <path id="ma8e784a66d" d="M 0 1.5 
C 0.397805 1.5 0.77937 1.341951 1.06066 1.06066 
C 1.341951 0.77937 1.5 0.397805 1.5 0 
C 1.5 -0.397805 1.341951 -0.77937 1.06066 -1.06066 
C 0.77937 -1.341951 0.397805 -1.5 0 -1.5 
C -0.397805 -1.5 -0.77937 -1.341951 -1.06066 -1.06066 
C -1.341951 -0.77937 -1.5 -0.397805 -1.5 0 
C -1.5 0.397805 -1.341951 0.77937 -1.06066 1.06066 
C -0.77937 1.341951 -0.397805 1.5 0 1.5 
z
" style="stroke: #dd0000; stroke-width: 0.75"/>
    </defs>
    <g clip-path="url(#p6bec714348)">
     <use xlink:href="#ma8e784a66d" x="17.496" y="25.6788" style="fill: #dd0000; stroke: #dd0000; stroke-width: 0.75"/>
     <use xlink:href="#ma8e784a66d" x="30.888" y="30.28725" style="fill: #dd0000; stroke: #dd0000; stroke-width: 0.75"/>
     <use xlink:href="#ma8e784a66d" x="44.28" y="26.89155" style="fill: #dd0000; stroke: #dd0000; stroke-width: 0.75"/>
     <use xlink:href="#ma8e784a66d" x="57.672" y="26.89155" style="fill: #dd0000; stroke: #dd0000; stroke-width: 0.75"/>
     <use xlink:href="#ma8e784a66d" x="71.064" y="35.62335" style="fill: #dd0000; stroke: #dd0000; stroke-width: 0.75"/>
    </g>
   </g>
   <g id="line2d_13">
    <path d="M 17.496 31.748614 
L 17.496 20.10015 
" clip-path="url(#p6bec714348)" style="fill: none; stroke: #dd0000; stroke-linecap: square"/>
   </g>
   <g id="line2d_14">
    <path d="M 30.888 37.56375 
L 30.888 23.2533 
" clip-path="url(#p6bec714348)" style="fill: none; stroke: #dd0000; stroke-linecap: square"/>
   </g>
   <g id="line2d_15">
    <path d="M 44.28 34.16805 
L 44.28 20.3427 
" clip-path="url(#p6bec714348)" style="fill: none; stroke: #dd0000; stroke-linecap: square"/>
   </g>
   <g id="line2d_16">
    <path d="M 57.672 32.71275 
L 57.672 21.55545 
" clip-path="url(#p6bec714348)" style="fill: none; stroke: #dd0000; stroke-linecap: square"/>
   </g>
   <g id="line2d_17">
    <path d="M 71.064 41.92965 
L 71.064 28.83195 
" clip-path="url(#p6bec714348)" style="fill: none; stroke: #dd0000; stroke-linecap: square"/>
   </g>
   <g id="line2d_18">
    <path d="M 17.496 50.17635 
L 30.888 33.19785 
L 44.28 44.84025 
L 57.672 68.3676 
L 71.064 78.5547 
" clip-path="url(#p6bec714348)" style="fill: none; stroke: #000000; stroke-linecap: square"/>
    <defs>
     <path id="m05b4499913" d="M 0 1.5 
C 0.397805 1.5 0.77937 1.341951 1.06066 1.06066 
C 1.341951 0.77937 1.5 0.397805 1.5 0 
C 1.5 -0.397805 1.341951 -0.77937 1.06066 -1.06066 
C 0.77937 -1.341951 0.397805 -1.5 0 -1.5 
C -0.397805 -1.5 -0.77937 -1.341951 -1.06066 -1.06066 
C -1.341951 -0.77937 -1.5 -0.397805 -1.5 0 
C -1.5 0.397805 -1.341951 0.77937 -1.06066 1.06066 
C -0.77937 1.341951 -0.397805 1.5 0 1.5 
z
" style="stroke: #000000; stroke-width: 0.75"/>
    </defs>
    <g clip-path="url(#p6bec714348)">
     <use xlink:href="#m05b4499913" x="17.496" y="50.17635" style="stroke: #000000; stroke-width: 0.75"/>
     <use xlink:href="#m05b4499913" x="30.888" y="33.19785" style="stroke: #000000; stroke-width: 0.75"/>
     <use xlink:href="#m05b4499913" x="44.28" y="44.84025" style="stroke: #000000; stroke-width: 0.75"/>
     <use xlink:href="#m05b4499913" x="57.672" y="68.3676" style="stroke: #000000; stroke-width: 0.75"/>
     <use xlink:href="#m05b4499913" x="71.064" y="78.5547" style="stroke: #000000; stroke-width: 0.75"/>
    </g>
   </g>
   <g id="line2d_19">
    <path d="M 17.496 61.0911 
L 17.496 39.492023 
" clip-path="url(#p6bec714348)" style="fill: none; stroke: #000000; stroke-linecap: square"/>
   </g>
   <g id="line2d_20">
    <path d="M 30.888 42.178264 
L 30.888 24.702536 
" clip-path="url(#p6bec714348)" style="fill: none; stroke: #000000; stroke-linecap: square"/>
   </g>
   <g id="line2d_21">
    <path d="M 44.28 56.2401 
L 44.28 33.434336 
" clip-path="url(#p6bec714348)" style="fill: none; stroke: #000000; stroke-linecap: square"/>
   </g>
   <g id="line2d_22">
    <path d="M 57.672 76.6143 
L 57.672 59.87835 
" clip-path="url(#p6bec714348)" style="fill: none; stroke: #000000; stroke-linecap: square"/>
   </g>
   <g id="line2d_23">
    <path d="M 71.064 83.4057 
L 71.064 73.2186 
" clip-path="url(#p6bec714348)" style="fill: none; stroke: #000000; stroke-linecap: square"/>
   </g>
   <g id="line2d_24">
    <path d="M 17.496 33.05232 
L 30.888 33.82848 
L 44.28 42.36624 
L 57.672 37.70928 
L 71.064 38.48544 
" clip-path="url(#p6bec714348)" style="fill: none; stroke: #ffcc00; stroke-linecap: square"/>
    <defs>
     <path id="m9477f024d8" d="M 0 1.5 
C 0.397805 1.5 0.77937 1.341951 1.06066 1.06066 
C 1.341951 0.77937 1.5 0.397805 1.5 0 
C 1.5 -0.397805 1.341951 -0.77937 1.06066 -1.06066 
C 0.77937 -1.341951 0.397805 -1.5 0 -1.5 
C -0.397805 -1.5 -0.77937 -1.341951 -1.06066 -1.06066 
C -1.341951 -0.77937 -1.5 -0.397805 -1.5 0 
C -1.5 0.397805 -1.341951 0.77937 -1.06066 1.06066 
C -0.77937 1.341951 -0.397805 1.5 0 1.5 
z
" style="stroke: #ffcc00; stroke-width: 0.75"/>
    </defs>
    <g clip-path="url(#p6bec714348)">
     <use xlink:href="#m9477f024d8" x="17.496" y="33.05232" style="fill: #ffcc00; stroke: #ffcc00; stroke-width: 0.75"/>
     <use xlink:href="#m9477f024d8" x="30.888" y="33.82848" style="fill: #ffcc00; stroke: #ffcc00; stroke-width: 0.75"/>
     <use xlink:href="#m9477f024d8" x="44.28" y="42.36624" style="fill: #ffcc00; stroke: #ffcc00; stroke-width: 0.75"/>
     <use xlink:href="#m9477f024d8" x="57.672" y="37.70928" style="fill: #ffcc00; stroke: #ffcc00; stroke-width: 0.75"/>
     <use xlink:href="#m9477f024d8" x="71.064" y="38.48544" style="fill: #ffcc00; stroke: #ffcc00; stroke-width: 0.75"/>
    </g>
   </g>
   <g id="line2d_25">
    <path d="M 17.496 41.599782 
L 17.496 25.29072 
" clip-path="url(#p6bec714348)" style="fill: none; stroke: #ffcc00; stroke-linecap: square"/>
   </g>
   <g id="line2d_26">
    <path d="M 30.888 41.97816 
L 30.888 26.45496 
" clip-path="url(#p6bec714348)" style="fill: none; stroke: #ffcc00; stroke-linecap: square"/>
   </g>
   <g id="line2d_27">
    <path d="M 44.28 50.137542 
L 44.28 34.99272 
" clip-path="url(#p6bec714348)" style="fill: none; stroke: #ffcc00; stroke-linecap: square"/>
   </g>
   <g id="line2d_28">
    <path d="M 57.672 45.47088 
L 57.672 30.33576 
" clip-path="url(#p6bec714348)" style="fill: none; stroke: #ffcc00; stroke-linecap: square"/>
   </g>
   <g id="line2d_29">
    <path d="M 71.064 46.24704 
L 71.064 31.5 
" clip-path="url(#p6bec714348)" style="fill: none; stroke: #ffcc00; stroke-linecap: square"/>
   </g>
   <g id="line2d_30"/>
   <g id="line2d_31"/>
   <g id="line2d_32"/>
   <g id="patch_3">
    <path d="M 10.8 89.712 
L 10.8 12.096 
" style="fill: none; stroke: #000000; stroke-width: 0.8; stroke-linejoin: miter; stroke-linecap: square"/>
   </g>
   <g id="patch_4">
    <path d="M 10.8 89.712 
L 77.76 89.712 
" style="fill: none; stroke: #000000; stroke-width: 0.8; stroke-linejoin: miter; stroke-linecap: square"/>
   </g>
   <g id="text_14">
    <text style="fill: #dd0000; font: 10px 'Arial', sans-serif; text-anchor: middle" x="17.496" y="19.8576" transform="rotate(-0 17.496 19.8576)">***</text>
   </g>
   <g id="text_15">
    <text style="fill: #dd0000; font: 10px 'Arial', sans-serif; text-anchor: middle" x="44.28" y="19.8576" transform="rotate(-0 44.28 19.8576)">*</text>
   </g>
   <g id="text_16">
    <text style="fill: #dd0000; font: 10px 'Arial', sans-serif; text-anchor: middle" x="57.672" y="19.8576" transform="rotate(-0 57.672 19.8576)">***</text>
   </g>
   <g id="text_17">
    <text style="fill: #dd0000; font: 10px 'Arial', sans-serif; text-anchor: middle" x="71.064" y="19.8576" transform="rotate(-0 71.064 19.8576)">***</text>
   </g>
   <g id="text_18">
    <text style="fill: #0072b2; font: 10px 'Arial', sans-serif; text-anchor: middle" x="44.28" y="8.99136" transform="rotate(-0 44.28 8.99136)">*</text>
   </g>
   <g id="text_19">
    <text style="fill: #ffcc00; font: 10px 'Arial', sans-serif; text-anchor: middle" x="57.672" y="14.42448" transform="rotate(-0 57.672 14.42448)">***</text>
   </g>
   <g id="text_20">
    <text style="fill: #ffcc00; font: 10px 'Arial', sans-serif; text-anchor: middle" x="71.064" y="14.42448" transform="rotate(-0 71.064 14.42448)">***</text>
   </g>
  </g>
 </g>
 <defs>
  <clipPath id="p6bec714348">
   <rect x="10.8" y="12.096" width="66.96" height="77.616"/>
  </clipPath>
 </defs>
</svg>
