<?xml version="1.0" encoding="utf-8" standalone="no"?>
<!DOCTYPE svg PUBLIC "-//W3C//DTD SVG 1.1//EN"
  "http://www.w3.org/Graphics/SVG/1.1/DTD/svg11.dtd">
<svg xmlns:xlink="http://www.w3.org/1999/xlink" width="108pt" height="86.4pt" viewBox="0 0 108 86.4" xmlns="http://www.w3.org/2000/svg" version="1.1">
 <metadata>
  <rdf:RDF xmlns:dc="http://purl.org/dc/elements/1.1/" xmlns:cc="http://creativecommons.org/ns#" xmlns:rdf="http://www.w3.org/1999/02/22-rdf-syntax-ns#">
   <cc:Work>
    <dc:type rdf:resource="http://purl.org/dc/dcmitype/StillImage"/>
    <dc:date>2024-09-12T15:04:33.733259</dc:date>
    <dc:format>image/svg+xml</dc:format>
    <dc:creator>
     <cc:Agent>
      <dc:title>Matplotlib v3.8.4, https://matplotlib.org/</dc:title>
     </cc:Agent>
    </dc:creator>
   </cc:Work>
  </rdf:RDF>
 </metadata>
 <defs>
  <style type="text/css">*{stroke-linejoin: round; stroke-linecap: butt}</style>
 </defs>
 <g id="figure_1">
  <g id="patch_1">
   <path d="M 0 86.4 
L 108 86.4 
L 108 0 
L 0 0 
z
" style="fill: #ffffff"/>
  </g>
  <g id="axes_1">
   <g id="patch_2">
    <path d="M 13.5 76.896 
L 97.2 76.896 
L 97.2 10.368 
L 13.5 10.368 
z
" style="fill: #ffffff"/>
   </g>
   <g id="matplotlib.axis_1">
    <g id="xtick_1">
     <g id="line2d_1">
      <defs>
       <path id="m2c71c23863" d="M 0 0 
L 0 2 
" style="stroke: #000000; stroke-width: 0.8"/>
      </defs>
      <g>
       <use xlink:href="#m2c71c23863" x="21.87" y="76.896" style="stroke: #000000; stroke-width: 0.8"/>
      </g>
     </g>
     <g id="text_1">
      <text style="font: 6px 'Arial', sans-serif; text-anchor: middle" x="21.87" y="85.190687" transform="rotate(-0 21.87 85.190687)">4</text>
     </g>
    </g>
    <g id="xtick_2">
     <g id="line2d_2">
      <g>
       <use xlink:href="#m2c71c23863" x="38.61" y="76.896" style="stroke: #000000; stroke-width: 0.8"/>
      </g>
     </g>
     <g id="text_2">
      <text style="font: 6px 'Arial', sans-serif; text-anchor: middle" x="38.61" y="85.190687" transform="rotate(-0 38.61 85.190687)">8</text>
     </g>
    </g>
    <g id="xtick_3">
     <g id="line2d_3">
      <g>
       <use xlink:href="#m2c71c23863" x="55.35" y="76.896" style="stroke: #000000; stroke-width: 0.8"/>
      </g>
     </g>
     <g id="text_3">
      <text style="font: 6px 'Arial', sans-serif; text-anchor: middle" x="55.35" y="85.190687" transform="rotate(-0 55.35 85.190687)">16</text>
     </g>
    </g>
    <g id="xtick_4">
     <g id="line2d_4">
      <g>
       <use xlink:href="#m2c71c23863" x="72.09" y="76.896" style="stroke: #000000; stroke-width: 0.8"/>
      </g>
     </g>
     <g id="text_4">
      <text style="font: 6px 'Arial', sans-serif; text-anchor: middle" x="72.09" y="85.190687" transform="rotate(-0 72.09 85.190687)">32</text>
     </g>
    </g>
    <g id="xtick_5">
     <g id="line2d_5">
      <g>
       <use xlink:href="#m2c71c23863" x="88.83" y="76.896" style="stroke: #000000; stroke-width: 0.8"/>
      </g>
     </g>
     <g id="text_5">
      <text style="font: 6px 'Arial', sans-serif; text-anchor: middle" x="88.83" y="85.190687" transform="rotate(-0 88.83 85.190687)">64</text>
     </g>
    </g>
    <g id="text_6">
     <text style="font: 7px 'Arial', sans-serif; text-anchor: middle" x="55.35" y="91.478969" transform="rotate(-0 55.35 91.478969)">Characteristic frequency (kHz)</text>
    </g>
   </g>
   <g id="matplotlib.axis_2">
    <g id="ytick_1">
     <g id="line2d_6">
      <defs>
       <path id="mc1919eee9d" d="M 0 0 
L -2 0 
" style="stroke: #000000; stroke-width: 0.8"/>
      </defs>
      <g>
       <use xlink:href="#mc1919eee9d" x="13.5" y="76.896" style="stroke: #000000; stroke-width: 0.8"/>
      </g>
     </g>
     <g id="text_7">
      <text style="font: 6px 'Arial', sans-serif; text-anchor: end" x="9.5" y="79.043344" transform="rotate(-0 9.5 79.043344)">0.00</text>
     </g>
    </g>
    <g id="ytick_2">
     <g id="line2d_7">
      <g>
       <use xlink:href="#mc1919eee9d" x="13.5" y="43.632" style="stroke: #000000; stroke-width: 0.8"/>
      </g>
     </g>
     <g id="text_8">
      <text style="font: 6px 'Arial', sans-serif; text-anchor: end" x="9.5" y="45.779344" transform="rotate(-0 9.5 45.779344)">0.25</text>
     </g>
    </g>
    <g id="ytick_3">
     <g id="line2d_8">
      <g>
       <use xlink:href="#mc1919eee9d" x="13.5" y="10.368" style="stroke: #000000; stroke-width: 0.8"/>
      </g>
     </g>
     <g id="text_9">
      <text style="font: 6px 'Arial', sans-serif; text-anchor: end" x="9.5" y="12.515344" transform="rotate(-0 9.5 12.515344)">0.50</text>
     </g>
    </g>
    <g id="text_10">
     <text style="font: 7px 'Arial', sans-serif; text-anchor: middle" x="-3.567812" y="43.632" transform="rotate(-90 -3.567812 43.632)">Proportion of neurons</text>
    </g>
   </g>
   <g id="line2d_9">
    <path d="M 21.87 58.691697 
L 38.61 27.270879 
L 55.35 34.318339 
L 72.09 62.569474 
L 88.83 68.573611 
" style="fill: none; stroke: #000000; stroke-linecap: square"/>
    <defs>
     <path id="m4d5465f292" d="M 0 1 
C 0.265203 1 0.51958 0.894634 0.707107 0.707107 
C 0.894634 0.51958 1 0.265203 1 0 
C 1 -0.265203 0.894634 -0.51958 0.707107 -0.707107 
C 0.51958 -0.894634 0.265203 -1 0 -1 
C -0.265203 -1 -0.51958 -0.894634 -0.707107 -0.707107 
C -0.894634 -0.51958 -1 -0.265203 -1 0 
C -1 0.265203 -0.894634 0.51958 -0.707107 0.707107 
C -0.51958 0.894634 -0.265203 1 0 1 
z
" style="stroke: #000000; stroke-width: 0.75"/>
    </defs>
    <g>
     <use xlink:href="#m4d5465f292" x="21.87" y="58.691697" style="stroke: #000000; stroke-width: 0.75"/>
     <use xlink:href="#m4d5465f292" x="38.61" y="27.270879" style="stroke: #000000; stroke-width: 0.75"/>
     <use xlink:href="#m4d5465f292" x="55.35" y="34.318339" style="stroke: #000000; stroke-width: 0.75"/>
     <use xlink:href="#m4d5465f292" x="72.09" y="62.569474" style="stroke: #000000; stroke-width: 0.75"/>
     <use xlink:href="#m4d5465f292" x="88.83" y="68.573611" style="stroke: #000000; stroke-width: 0.75"/>
    </g>
   </g>
   <g id="line2d_10">
    <path d="M 21.87 61.872774 
L 21.87 55.510619 
" clip-path="url(#p5a93961195)" style="fill: none; stroke: #000000; stroke-linecap: square"/>
   </g>
   <g id="line2d_11">
    <path d="M 38.61 37.1072 
L 38.61 17.434558 
" clip-path="url(#p5a93961195)" style="fill: none; stroke: #000000; stroke-linecap: square"/>
   </g>
   <g id="line2d_12">
    <path d="M 55.35 44.045983 
L 55.35 24.590695 
" clip-path="url(#p5a93961195)" style="fill: none; stroke: #000000; stroke-linecap: square"/>
   </g>
   <g id="line2d_13">
    <path d="M 72.09 68.892833 
L 72.09 56.246114 
" clip-path="url(#p5a93961195)" style="fill: none; stroke: #000000; stroke-linecap: square"/>
   </g>
   <g id="line2d_14">
    <path d="M 88.83 70.056152 
L 88.83 67.091071 
" clip-path="url(#p5a93961195)" style="fill: none; stroke: #000000; stroke-linecap: square"/>
   </g>
   <g id="line2d_15">
    <path d="M 21.87 62.960267 
L 38.61 54.361766 
L 55.35 39.494424 
L 72.09 42.617678 
L 88.83 51.989865 
" style="fill: none; stroke: #dd0000; stroke-linecap: square"/>
    <defs>
     <path id="ma7e328e9b7" d="M 0 1 
C 0.265203 1 0.51958 0.894634 0.707107 0.707107 
C 0.894634 0.51958 1 0.265203 1 0 
C 1 -0.265203 0.894634 -0.51958 0.707107 -0.707107 
C 0.51958 -0.894634 0.265203 -1 0 -1 
C -0.265203 -1 -0.51958 -0.894634 -0.707107 -0.707107 
C -0.894634 -0.51958 -1 -0.265203 -1 0 
C -1 0.265203 -0.894634 0.51958 -0.707107 0.707107 
C -0.51958 0.894634 -0.265203 1 0 1 
z
" style="stroke: #dd0000; stroke-width: 0.75"/>
    </defs>
    <g>
     <use xlink:href="#ma7e328e9b7" x="21.87" y="62.960267" style="fill: #dd0000; stroke: #dd0000; stroke-width: 0.75"/>
     <use xlink:href="#ma7e328e9b7" x="38.61" y="54.361766" style="fill: #dd0000; stroke: #dd0000; stroke-width: 0.75"/>
     <use xlink:href="#ma7e328e9b7" x="55.35" y="39.494424" style="fill: #dd0000; stroke: #dd0000; stroke-width: 0.75"/>
     <use xlink:href="#ma7e328e9b7" x="72.09" y="42.617678" style="fill: #dd0000; stroke: #dd0000; stroke-width: 0.75"/>
     <use xlink:href="#ma7e328e9b7" x="88.83" y="51.989865" style="fill: #dd0000; stroke: #dd0000; stroke-width: 0.75"/>
    </g>
   </g>
   <g id="line2d_16">
    <path d="M 21.87 64.727741 
L 21.87 61.192794 
" clip-path="url(#p5a93961195)" style="fill: none; stroke: #dd0000; stroke-linecap: square"/>
   </g>
   <g id="line2d_17">
    <path d="M 38.61 57.708939 
L 38.61 51.014593 
" clip-path="url(#p5a93961195)" style="fill: none; stroke: #dd0000; stroke-linecap: square"/>
   </g>
   <g id="line2d_18">
    <path d="M 55.35 43.027616 
L 55.35 35.961232 
" clip-path="url(#p5a93961195)" style="fill: none; stroke: #dd0000; stroke-linecap: square"/>
   </g>
   <g id="line2d_19">
    <path d="M 72.09 46.538255 
L 72.09 38.697101 
" clip-path="url(#p5a93961195)" style="fill: none; stroke: #dd0000; stroke-linecap: square"/>
   </g>
   <g id="line2d_20">
    <path d="M 88.83 56.216516 
L 88.83 47.763215 
" clip-path="url(#p5a93961195)" style="fill: none; stroke: #dd0000; stroke-linecap: square"/>
   </g>
   <g id="line2d_21"/>
   <g id="line2d_22"/>
   <g id="line2d_23"/>
   <g id="line2d_24"/>
   <g id="patch_3">
    <path d="M 13.5 76.896 
L 13.5 10.368 
" style="fill: none; stroke: #000000; stroke-width: 0.8; stroke-linejoin: miter; stroke-linecap: square"/>
   </g>
   <g id="patch_4">
    <path d="M 13.5 76.896 
L 97.2 76.896 
" style="fill: none; stroke: #000000; stroke-width: 0.8; stroke-linejoin: miter; stroke-linecap: square"/>
   </g>
  </g>
 </g>
 <defs>
  <clipPath id="p5a93961195">
   <rect x="13.5" y="10.368" width="83.7" height="66.528"/>
  </clipPath>
 </defs>
</svg>
