<?xml version="1.0" encoding="utf-8" standalone="no"?>
<!DOCTYPE svg PUBLIC "-//W3C//DTD SVG 1.1//EN"
  "http://www.w3.org/Graphics/SVG/1.1/DTD/svg11.dtd">
<svg xmlns:xlink="http://www.w3.org/1999/xlink" width="108pt" height="86.4pt" viewBox="0 0 108 86.4" xmlns="http://www.w3.org/2000/svg" version="1.1">
 <metadata>
  <rdf:RDF xmlns:dc="http://purl.org/dc/elements/1.1/" xmlns:cc="http://creativecommons.org/ns#" xmlns:rdf="http://www.w3.org/1999/02/22-rdf-syntax-ns#">
   <cc:Work>
    <dc:type rdf:resource="http://purl.org/dc/dcmitype/StillImage"/>
    <dc:date>2024-09-12T15:04:33.085694</dc:date>
    <dc:format>image/svg+xml</dc:format>
    <dc:creator>
     <cc:Agent>
      <dc:title>Matplotlib v3.8.4, https://matplotlib.org/</dc:title>
     </cc:Agent>
    </dc:creator>
   </cc:Work>
  </rdf:RDF>
 </metadata>
 <defs>
  <style type="text/css">*{stroke-linejoin: round; stroke-linecap: butt}</style>
 </defs>
 <g id="figure_1">
  <g id="patch_1">
   <path d="M 0 86.4 
L 108 86.4 
L 108 0 
L 0 0 
z
" style="fill: #ffffff"/>
  </g>
  <g id="axes_1">
   <g id="patch_2">
    <path d="M 13.5 76.896 
L 97.2 76.896 
L 97.2 10.368 
L 13.5 10.368 
z
" style="fill: #ffffff"/>
   </g>
   <g id="matplotlib.axis_1">
    <g id="xtick_1">
     <g id="line2d_1">
      <defs>
       <path id="ma6b77afad7" d="M 0 0 
L 0 2 
" style="stroke: #000000; stroke-width: 0.8"/>
      </defs>
      <g>
       <use xlink:href="#ma6b77afad7" x="21.87" y="76.896" style="stroke: #000000; stroke-width: 0.8"/>
      </g>
     </g>
     <g id="text_1">
      <text style="font: 6px 'Arial', sans-serif; text-anchor: middle" x="21.87" y="85.190687" transform="rotate(-0 21.87 85.190687)">0</text>
     </g>
    </g>
    <g id="xtick_2">
     <g id="line2d_2">
      <g>
       <use xlink:href="#ma6b77afad7" x="38.61" y="76.896" style="stroke: #000000; stroke-width: 0.8"/>
      </g>
     </g>
     <g id="text_2">
      <text style="font: 6px 'Arial', sans-serif; text-anchor: middle" x="38.61" y="85.190687" transform="rotate(-0 38.61 85.190687)">1</text>
     </g>
    </g>
    <g id="xtick_3">
     <g id="line2d_3">
      <g>
       <use xlink:href="#ma6b77afad7" x="55.35" y="76.896" style="stroke: #000000; stroke-width: 0.8"/>
      </g>
     </g>
     <g id="text_3">
      <text style="font: 6px 'Arial', sans-serif; text-anchor: middle" x="55.35" y="85.190687" transform="rotate(-0 55.35 85.190687)">2</text>
     </g>
    </g>
    <g id="xtick_4">
     <g id="line2d_4">
      <g>
       <use xlink:href="#ma6b77afad7" x="72.09" y="76.896" style="stroke: #000000; stroke-width: 0.8"/>
      </g>
     </g>
     <g id="text_4">
      <text style="font: 6px 'Arial', sans-serif; text-anchor: middle" x="72.09" y="85.190687" transform="rotate(-0 72.09 85.190687)">3</text>
     </g>
    </g>
    <g id="xtick_5">
     <g id="line2d_5">
      <g>
       <use xlink:href="#ma6b77afad7" x="88.83" y="76.896" style="stroke: #000000; stroke-width: 0.8"/>
      </g>
     </g>
     <g id="text_5">
      <text style="font: 6px 'Arial', sans-serif; text-anchor: middle" x="88.83" y="85.190687" transform="rotate(-0 88.83 85.190687)">4</text>
     </g>
    </g>
    <g id="text_6">
     <text style="font: 7px 'Arial', sans-serif; text-anchor: middle" x="55.35" y="91.478969" transform="rotate(-0 55.35 91.478969)">Bandwidth (octaves)</text>
    </g>
   </g>
   <g id="matplotlib.axis_2">
    <g id="ytick_1">
     <g id="line2d_6">
      <defs>
       <path id="m357c129dcb" d="M 0 0 
L -2 0 
" style="stroke: #000000; stroke-width: 0.8"/>
      </defs>
      <g>
       <use xlink:href="#m357c129dcb" x="13.5" y="76.896" style="stroke: #000000; stroke-width: 0.8"/>
      </g>
     </g>
     <g id="text_7">
      <text style="font: 6px 'Arial', sans-serif; text-anchor: end" x="9.5" y="79.043344" transform="rotate(-0 9.5 79.043344)">0.0</text>
     </g>
    </g>
    <g id="ytick_2">
     <g id="line2d_7">
      <g>
       <use xlink:href="#m357c129dcb" x="13.5" y="54.72" style="stroke: #000000; stroke-width: 0.8"/>
      </g>
     </g>
     <g id="text_8">
      <text style="font: 6px 'Arial', sans-serif; text-anchor: end" x="9.5" y="56.867344" transform="rotate(-0 9.5 56.867344)">0.2</text>
     </g>
    </g>
    <g id="ytick_3">
     <g id="line2d_8">
      <g>
       <use xlink:href="#m357c129dcb" x="13.5" y="32.544" style="stroke: #000000; stroke-width: 0.8"/>
      </g>
     </g>
     <g id="text_9">
      <text style="font: 6px 'Arial', sans-serif; text-anchor: end" x="9.5" y="34.691344" transform="rotate(-0 9.5 34.691344)">0.4</text>
     </g>
    </g>
    <g id="ytick_4">
     <g id="line2d_9">
      <g>
       <use xlink:href="#m357c129dcb" x="13.5" y="10.368" style="stroke: #000000; stroke-width: 0.8"/>
      </g>
     </g>
     <g id="text_10">
      <text style="font: 6px 'Arial', sans-serif; text-anchor: end" x="9.5" y="12.515344" transform="rotate(-0 9.5 12.515344)">0.6</text>
     </g>
    </g>
    <g id="text_11">
     <text style="font: 7px 'Arial', sans-serif; text-anchor: middle" x="-0.23125" y="43.632" transform="rotate(-90 -0.23125 43.632)">Proportion of neurons</text>
    </g>
   </g>
   <g id="line2d_10">
    <path d="M 21.87 19.150565 
L 38.61 43.482305 
L 55.35 59.908367 
L 72.09 74.421809 
L 88.83 76.636953 
" style="fill: none; stroke: #000000; stroke-linecap: square"/>
    <defs>
     <path id="m8b50911170" d="M 0 1 
C 0.265203 1 0.51958 0.894634 0.707107 0.707107 
C 0.894634 0.51958 1 0.265203 1 0 
C 1 -0.265203 0.894634 -0.51958 0.707107 -0.707107 
C 0.51958 -0.894634 0.265203 -1 0 -1 
C -0.265203 -1 -0.51958 -0.894634 -0.707107 -0.707107 
C -0.894634 -0.51958 -1 -0.265203 -1 0 
C -1 0.265203 -0.894634 0.51958 -0.707107 0.707107 
C -0.51958 0.894634 -0.265203 1 0 1 
z
" style="stroke: #000000; stroke-width: 0.75"/>
    </defs>
    <g>
     <use xlink:href="#m8b50911170" x="21.87" y="19.150565" style="stroke: #000000; stroke-width: 0.75"/>
     <use xlink:href="#m8b50911170" x="38.61" y="43.482305" style="stroke: #000000; stroke-width: 0.75"/>
     <use xlink:href="#m8b50911170" x="55.35" y="59.908367" style="stroke: #000000; stroke-width: 0.75"/>
     <use xlink:href="#m8b50911170" x="72.09" y="74.421809" style="stroke: #000000; stroke-width: 0.75"/>
     <use xlink:href="#m8b50911170" x="88.83" y="76.636953" style="stroke: #000000; stroke-width: 0.75"/>
    </g>
   </g>
   <g id="line2d_11">
    <path d="M 21.87 25.866063 
L 21.87 12.435067 
" clip-path="url(#pbe2efd6053)" style="fill: none; stroke: #000000; stroke-linecap: square"/>
   </g>
   <g id="line2d_12">
    <path d="M 38.61 47.402601 
L 38.61 39.562009 
" clip-path="url(#pbe2efd6053)" style="fill: none; stroke: #000000; stroke-linecap: square"/>
   </g>
   <g id="line2d_13">
    <path d="M 55.35 63.274294 
L 55.35 56.542441 
" clip-path="url(#pbe2efd6053)" style="fill: none; stroke: #000000; stroke-linecap: square"/>
   </g>
   <g id="line2d_14">
    <path d="M 72.09 75.069179 
L 72.09 73.77444 
" clip-path="url(#pbe2efd6053)" style="fill: none; stroke: #000000; stroke-linecap: square"/>
   </g>
   <g id="line2d_15">
    <path d="M 88.83 76.753634 
L 88.83 76.520272 
" clip-path="url(#pbe2efd6053)" style="fill: none; stroke: #000000; stroke-linecap: square"/>
   </g>
   <g id="line2d_16">
    <path d="M 21.87 30.78595 
L 38.61 56.134907 
L 55.35 59.161669 
L 72.09 61.742254 
L 88.83 65.77522 
" style="fill: none; stroke: #dd0000; stroke-linecap: square"/>
    <defs>
     <path id="m13880b0fda" d="M 0 1 
C 0.265203 1 0.51958 0.894634 0.707107 0.707107 
C 0.894634 0.51958 1 0.265203 1 0 
C 1 -0.265203 0.894634 -0.51958 0.707107 -0.707107 
C 0.51958 -0.894634 0.265203 -1 0 -1 
C -0.265203 -1 -0.51958 -0.894634 -0.707107 -0.707107 
C -0.894634 -0.51958 -1 -0.265203 -1 0 
C -1 0.265203 -0.894634 0.51958 -0.707107 0.707107 
C -0.51958 0.894634 -0.265203 1 0 1 
z
" style="stroke: #dd0000; stroke-width: 0.75"/>
    </defs>
    <g>
     <use xlink:href="#m13880b0fda" x="21.87" y="30.78595" style="fill: #dd0000; stroke: #dd0000; stroke-width: 0.75"/>
     <use xlink:href="#m13880b0fda" x="38.61" y="56.134907" style="fill: #dd0000; stroke: #dd0000; stroke-width: 0.75"/>
     <use xlink:href="#m13880b0fda" x="55.35" y="59.161669" style="fill: #dd0000; stroke: #dd0000; stroke-width: 0.75"/>
     <use xlink:href="#m13880b0fda" x="72.09" y="61.742254" style="fill: #dd0000; stroke: #dd0000; stroke-width: 0.75"/>
     <use xlink:href="#m13880b0fda" x="88.83" y="65.77522" style="fill: #dd0000; stroke: #dd0000; stroke-width: 0.75"/>
    </g>
   </g>
   <g id="line2d_17">
    <path d="M 21.87 34.483018 
L 21.87 27.088882 
" clip-path="url(#pbe2efd6053)" style="fill: none; stroke: #dd0000; stroke-linecap: square"/>
   </g>
   <g id="line2d_18">
    <path d="M 38.61 57.414676 
L 38.61 54.855138 
" clip-path="url(#pbe2efd6053)" style="fill: none; stroke: #dd0000; stroke-linecap: square"/>
   </g>
   <g id="line2d_19">
    <path d="M 55.35 60.14923 
L 55.35 58.174108 
" clip-path="url(#pbe2efd6053)" style="fill: none; stroke: #dd0000; stroke-linecap: square"/>
   </g>
   <g id="line2d_20">
    <path d="M 72.09 64.117979 
L 72.09 59.366529 
" clip-path="url(#pbe2efd6053)" style="fill: none; stroke: #dd0000; stroke-linecap: square"/>
   </g>
   <g id="line2d_21">
    <path d="M 88.83 67.42555 
L 88.83 64.12489 
" clip-path="url(#pbe2efd6053)" style="fill: none; stroke: #dd0000; stroke-linecap: square"/>
   </g>
   <g id="line2d_22"/>
   <g id="line2d_23"/>
   <g id="line2d_24"/>
   <g id="line2d_25"/>
   <g id="patch_3">
    <path d="M 13.5 76.896 
L 13.5 10.368 
" style="fill: none; stroke: #000000; stroke-width: 0.8; stroke-linejoin: miter; stroke-linecap: square"/>
   </g>
   <g id="patch_4">
    <path d="M 13.5 76.896 
L 97.2 76.896 
" style="fill: none; stroke: #000000; stroke-width: 0.8; stroke-linejoin: miter; stroke-linecap: square"/>
   </g>
  </g>
 </g>
 <defs>
  <clipPath id="pbe2efd6053">
   <rect x="13.5" y="10.368" width="83.7" height="66.528"/>
  </clipPath>
 </defs>
</svg>
