<?xml version="1.0" encoding="utf-8" standalone="no"?>
<!DOCTYPE svg PUBLIC "-//W3C//DTD SVG 1.1//EN"
  "http://www.w3.org/Graphics/SVG/1.1/DTD/svg11.dtd">
<svg xmlns:xlink="http://www.w3.org/1999/xlink" width="126pt" height="108pt" viewBox="0 0 126 108" xmlns="http://www.w3.org/2000/svg" version="1.1">
 <metadata>
  <rdf:RDF xmlns:dc="http://purl.org/dc/elements/1.1/" xmlns:cc="http://creativecommons.org/ns#" xmlns:rdf="http://www.w3.org/1999/02/22-rdf-syntax-ns#">
   <cc:Work>
    <dc:type rdf:resource="http://purl.org/dc/dcmitype/StillImage"/>
    <dc:date>2024-09-12T15:04:33.528305</dc:date>
    <dc:format>image/svg+xml</dc:format>
    <dc:creator>
     <cc:Agent>
      <dc:title>Matplotlib v3.8.4, https://matplotlib.org/</dc:title>
     </cc:Agent>
    </dc:creator>
   </cc:Work>
  </rdf:RDF>
 </metadata>
 <defs>
  <style type="text/css">*{stroke-linejoin: round; stroke-linecap: butt}</style>
 </defs>
 <g id="figure_1">
  <g id="patch_1">
   <path d="M 0 108 
L 126 108 
L 126 0 
L 0 0 
z
" style="fill: #ffffff"/>
  </g>
  <g id="axes_1">
   <g id="patch_2">
    <path d="M 15.75 96.12 
L 113.4 96.12 
L 113.4 12.96 
L 15.75 12.96 
z
" style="fill: #ffffff"/>
   </g>
   <g id="matplotlib.axis_1">
    <g id="xtick_1">
     <g id="line2d_1">
      <defs>
       <path id="m6a968ef074" d="M 0 0 
L 0 2 
" style="stroke: #000000; stroke-width: 0.8"/>
      </defs>
      <g>
       <use xlink:href="#m6a968ef074" x="25.515" y="96.12" style="stroke: #000000; stroke-width: 0.8"/>
      </g>
     </g>
     <g id="text_1">
      <text style="font: 6px 'Arial', sans-serif; text-anchor: middle" x="25.515" y="104.414687" transform="rotate(-0 25.515 104.414687)">4</text>
     </g>
    </g>
    <g id="xtick_2">
     <g id="line2d_2">
      <g>
       <use xlink:href="#m6a968ef074" x="45.045" y="96.12" style="stroke: #000000; stroke-width: 0.8"/>
      </g>
     </g>
     <g id="text_2">
      <text style="font: 6px 'Arial', sans-serif; text-anchor: middle" x="45.045" y="104.414687" transform="rotate(-0 45.045 104.414687)">8</text>
     </g>
    </g>
    <g id="xtick_3">
     <g id="line2d_3">
      <g>
       <use xlink:href="#m6a968ef074" x="64.575" y="96.12" style="stroke: #000000; stroke-width: 0.8"/>
      </g>
     </g>
     <g id="text_3">
      <text style="font: 6px 'Arial', sans-serif; text-anchor: middle" x="64.575" y="104.414687" transform="rotate(-0 64.575 104.414687)">16</text>
     </g>
    </g>
    <g id="xtick_4">
     <g id="line2d_4">
      <g>
       <use xlink:href="#m6a968ef074" x="84.105" y="96.12" style="stroke: #000000; stroke-width: 0.8"/>
      </g>
     </g>
     <g id="text_4">
      <text style="font: 6px 'Arial', sans-serif; text-anchor: middle" x="84.105" y="104.414687" transform="rotate(-0 84.105 104.414687)">32</text>
     </g>
    </g>
    <g id="xtick_5">
     <g id="line2d_5">
      <g>
       <use xlink:href="#m6a968ef074" x="103.635" y="96.12" style="stroke: #000000; stroke-width: 0.8"/>
      </g>
     </g>
     <g id="text_5">
      <text style="font: 6px 'Arial', sans-serif; text-anchor: middle" x="103.635" y="104.414687" transform="rotate(-0 103.635 104.414687)">64</text>
     </g>
    </g>
    <g id="text_6">
     <text style="font: 7px 'Arial', sans-serif; text-anchor: middle" x="64.575" y="110.702969" transform="rotate(-0 64.575 110.702969)">Best frequency (kHz)</text>
    </g>
   </g>
   <g id="matplotlib.axis_2">
    <g id="ytick_1">
     <g id="line2d_6">
      <defs>
       <path id="m8c761de1ff" d="M 0 0 
L -2 0 
" style="stroke: #000000; stroke-width: 0.8"/>
      </defs>
      <g>
       <use xlink:href="#m8c761de1ff" x="15.75" y="96.12" style="stroke: #000000; stroke-width: 0.8"/>
      </g>
     </g>
     <g id="text_7">
      <text style="font: 6px 'Arial', sans-serif; text-anchor: end" x="11.75" y="98.267344" transform="rotate(-0 11.75 98.267344)">0.00</text>
     </g>
    </g>
    <g id="ytick_2">
     <g id="line2d_7">
      <g>
       <use xlink:href="#m8c761de1ff" x="15.75" y="54.54" style="stroke: #000000; stroke-width: 0.8"/>
      </g>
     </g>
     <g id="text_8">
      <text style="font: 6px 'Arial', sans-serif; text-anchor: end" x="11.75" y="56.687344" transform="rotate(-0 11.75 56.687344)">0.25</text>
     </g>
    </g>
    <g id="ytick_3">
     <g id="line2d_8">
      <g>
       <use xlink:href="#m8c761de1ff" x="15.75" y="12.96" style="stroke: #000000; stroke-width: 0.8"/>
      </g>
     </g>
     <g id="text_9">
      <text style="font: 6px 'Arial', sans-serif; text-anchor: end" x="11.75" y="15.107344" transform="rotate(-0 11.75 15.107344)">0.50</text>
     </g>
    </g>
    <g id="text_10">
     <text style="font: 7px 'Arial', sans-serif; text-anchor: middle" x="-1.317812" y="54.54" transform="rotate(-90 -1.317812 54.54)">Proportion of neurons</text>
    </g>
   </g>
   <g id="line2d_9">
    <path d="M 25.515 54.937435 
L 45.045 43.974729 
L 64.575 45.131121 
L 84.105 70.273896 
L 103.635 92.628389 
" clip-path="url(#pe3261109f5)" style="fill: none; stroke: #000000; stroke-linecap: square"/>
    <defs>
     <path id="m58658704bf" d="M 0 1 
C 0.265203 1 0.51958 0.894634 0.707107 0.707107 
C 0.894634 0.51958 1 0.265203 1 0 
C 1 -0.265203 0.894634 -0.51958 0.707107 -0.707107 
C 0.51958 -0.894634 0.265203 -1 0 -1 
C -0.265203 -1 -0.51958 -0.894634 -0.707107 -0.707107 
C -0.894634 -0.51958 -1 -0.265203 -1 0 
C -1 0.265203 -0.894634 0.51958 -0.707107 0.707107 
C -0.51958 0.894634 -0.265203 1 0 1 
z
" style="stroke: #000000; stroke-width: 0.75"/>
    </defs>
    <g clip-path="url(#pe3261109f5)">
     <use xlink:href="#m58658704bf" x="25.515" y="54.937435" style="stroke: #000000; stroke-width: 0.75"/>
     <use xlink:href="#m58658704bf" x="45.045" y="43.974729" style="stroke: #000000; stroke-width: 0.75"/>
     <use xlink:href="#m58658704bf" x="64.575" y="45.131121" style="stroke: #000000; stroke-width: 0.75"/>
     <use xlink:href="#m58658704bf" x="84.105" y="70.273896" style="stroke: #000000; stroke-width: 0.75"/>
     <use xlink:href="#m58658704bf" x="103.635" y="92.628389" style="stroke: #000000; stroke-width: 0.75"/>
    </g>
   </g>
   <g id="line2d_10">
    <path d="M 25.515 57.7152 
L 25.515 52.159671 
" clip-path="url(#pe3261109f5)" style="fill: none; stroke: #000000; stroke-linecap: square"/>
   </g>
   <g id="line2d_11">
    <path d="M 45.045 51.71279 
L 45.045 36.236669 
" clip-path="url(#pe3261109f5)" style="fill: none; stroke: #000000; stroke-linecap: square"/>
   </g>
   <g id="line2d_12">
    <path d="M 64.575 52.936167 
L 64.575 37.326076 
" clip-path="url(#pe3261109f5)" style="fill: none; stroke: #000000; stroke-linecap: square"/>
   </g>
   <g id="line2d_13">
    <path d="M 84.105 78.79519 
L 84.105 61.752602 
" clip-path="url(#pe3261109f5)" style="fill: none; stroke: #000000; stroke-linecap: square"/>
   </g>
   <g id="line2d_14">
    <path d="M 103.635 94.005068 
L 103.635 91.251709 
" clip-path="url(#pe3261109f5)" style="fill: none; stroke: #000000; stroke-linecap: square"/>
   </g>
   <g id="line2d_15">
    <path d="M 25.515 58.998755 
L 45.045 60.879538 
L 64.575 52.995181 
L 84.105 61.541 
L 103.635 79.865527 
" clip-path="url(#pe3261109f5)" style="fill: none; stroke: #dd0000; stroke-linecap: square"/>
    <defs>
     <path id="m12f48202cb" d="M 0 1 
C 0.265203 1 0.51958 0.894634 0.707107 0.707107 
C 0.894634 0.51958 1 0.265203 1 0 
C 1 -0.265203 0.894634 -0.51958 0.707107 -0.707107 
C 0.51958 -0.894634 0.265203 -1 0 -1 
C -0.265203 -1 -0.51958 -0.894634 -0.707107 -0.707107 
C -0.894634 -0.51958 -1 -0.265203 -1 0 
C -1 0.265203 -0.894634 0.51958 -0.707107 0.707107 
C -0.51958 0.894634 -0.265203 1 0 1 
z
" style="stroke: #dd0000; stroke-width: 0.75"/>
    </defs>
    <g clip-path="url(#pe3261109f5)">
     <use xlink:href="#m12f48202cb" x="25.515" y="58.998755" style="fill: #dd0000; stroke: #dd0000; stroke-width: 0.75"/>
     <use xlink:href="#m12f48202cb" x="45.045" y="60.879538" style="fill: #dd0000; stroke: #dd0000; stroke-width: 0.75"/>
     <use xlink:href="#m12f48202cb" x="64.575" y="52.995181" style="fill: #dd0000; stroke: #dd0000; stroke-width: 0.75"/>
     <use xlink:href="#m12f48202cb" x="84.105" y="61.541" style="fill: #dd0000; stroke: #dd0000; stroke-width: 0.75"/>
     <use xlink:href="#m12f48202cb" x="103.635" y="79.865527" style="fill: #dd0000; stroke: #dd0000; stroke-width: 0.75"/>
    </g>
   </g>
   <g id="line2d_16">
    <path d="M 25.515 62.517484 
L 25.515 55.480026 
" clip-path="url(#pe3261109f5)" style="fill: none; stroke: #dd0000; stroke-linecap: square"/>
   </g>
   <g id="line2d_17">
    <path d="M 45.045 65.792876 
L 45.045 55.966199 
" clip-path="url(#pe3261109f5)" style="fill: none; stroke: #dd0000; stroke-linecap: square"/>
   </g>
   <g id="line2d_18">
    <path d="M 64.575 57.177806 
L 64.575 48.812556 
" clip-path="url(#pe3261109f5)" style="fill: none; stroke: #dd0000; stroke-linecap: square"/>
   </g>
   <g id="line2d_19">
    <path d="M 84.105 65.73312 
L 84.105 57.34888 
" clip-path="url(#pe3261109f5)" style="fill: none; stroke: #dd0000; stroke-linecap: square"/>
   </g>
   <g id="line2d_20">
    <path d="M 103.635 82.376649 
L 103.635 77.354404 
" clip-path="url(#pe3261109f5)" style="fill: none; stroke: #dd0000; stroke-linecap: square"/>
   </g>
   <g id="line2d_21">
    <path d="M 25.515 50.603291 
L 45.045 67.366446 
L 64.575 67.592494 
L 84.105 65.569206 
L 103.635 63.148564 
" clip-path="url(#pe3261109f5)" style="fill: none; stroke: #ffcc00; stroke-linecap: square"/>
    <defs>
     <path id="m1bc497aaf9" d="M 0 1 
C 0.265203 1 0.51958 0.894634 0.707107 0.707107 
C 0.894634 0.51958 1 0.265203 1 0 
C 1 -0.265203 0.894634 -0.51958 0.707107 -0.707107 
C 0.51958 -0.894634 0.265203 -1 0 -1 
C -0.265203 -1 -0.51958 -0.894634 -0.707107 -0.707107 
C -0.894634 -0.51958 -1 -0.265203 -1 0 
C -1 0.265203 -0.894634 0.51958 -0.707107 0.707107 
C -0.51958 0.894634 -0.265203 1 0 1 
z
" style="stroke: #ffcc00; stroke-width: 0.75"/>
    </defs>
    <g clip-path="url(#pe3261109f5)">
     <use xlink:href="#m1bc497aaf9" x="25.515" y="50.603291" style="fill: #ffcc00; stroke: #ffcc00; stroke-width: 0.75"/>
     <use xlink:href="#m1bc497aaf9" x="45.045" y="67.366446" style="fill: #ffcc00; stroke: #ffcc00; stroke-width: 0.75"/>
     <use xlink:href="#m1bc497aaf9" x="64.575" y="67.592494" style="fill: #ffcc00; stroke: #ffcc00; stroke-width: 0.75"/>
     <use xlink:href="#m1bc497aaf9" x="84.105" y="65.569206" style="fill: #ffcc00; stroke: #ffcc00; stroke-width: 0.75"/>
     <use xlink:href="#m1bc497aaf9" x="103.635" y="63.148564" style="fill: #ffcc00; stroke: #ffcc00; stroke-width: 0.75"/>
    </g>
   </g>
   <g id="line2d_22">
    <path d="M 25.515 57.43901 
L 25.515 43.767572 
" clip-path="url(#pe3261109f5)" style="fill: none; stroke: #ffcc00; stroke-linecap: square"/>
   </g>
   <g id="line2d_23">
    <path d="M 45.045 72.072755 
L 45.045 62.660137 
" clip-path="url(#pe3261109f5)" style="fill: none; stroke: #ffcc00; stroke-linecap: square"/>
   </g>
   <g id="line2d_24">
    <path d="M 64.575 72.239265 
L 64.575 62.945723 
" clip-path="url(#pe3261109f5)" style="fill: none; stroke: #ffcc00; stroke-linecap: square"/>
   </g>
   <g id="line2d_25">
    <path d="M 84.105 69.327086 
L 84.105 61.811326 
" clip-path="url(#pe3261109f5)" style="fill: none; stroke: #ffcc00; stroke-linecap: square"/>
   </g>
   <g id="line2d_26">
    <path d="M 103.635 68.361636 
L 103.635 57.935492 
" clip-path="url(#pe3261109f5)" style="fill: none; stroke: #ffcc00; stroke-linecap: square"/>
   </g>
   <g id="line2d_27"/>
   <g id="line2d_28"/>
   <g id="line2d_29"/>
   <g id="patch_3">
    <path d="M 15.75 96.12 
L 15.75 12.96 
" style="fill: none; stroke: #000000; stroke-width: 0.8; stroke-linejoin: miter; stroke-linecap: square"/>
   </g>
   <g id="patch_4">
    <path d="M 15.75 96.12 
L 113.4 96.12 
" style="fill: none; stroke: #000000; stroke-width: 0.8; stroke-linejoin: miter; stroke-linecap: square"/>
   </g>
  </g>
 </g>
 <defs>
  <clipPath id="pe3261109f5">
   <rect x="15.75" y="12.96" width="97.65" height="83.16"/>
  </clipPath>
 </defs>
</svg>
