<?xml version="1.0" encoding="utf-8" standalone="no"?>
<!DOCTYPE svg PUBLIC "-//W3C//DTD SVG 1.1//EN"
  "http://www.w3.org/Graphics/SVG/1.1/DTD/svg11.dtd">
<svg xmlns:xlink="http://www.w3.org/1999/xlink" width="126pt" height="108pt" viewBox="0 0 126 108" xmlns="http://www.w3.org/2000/svg" version="1.1">
 <metadata>
  <rdf:RDF xmlns:dc="http://purl.org/dc/elements/1.1/" xmlns:cc="http://creativecommons.org/ns#" xmlns:rdf="http://www.w3.org/1999/02/22-rdf-syntax-ns#">
   <cc:Work>
    <dc:type rdf:resource="http://purl.org/dc/dcmitype/StillImage"/>
    <dc:date>2024-09-12T15:04:33.199721</dc:date>
    <dc:format>image/svg+xml</dc:format>
    <dc:creator>
     <cc:Agent>
      <dc:title>Matplotlib v3.8.4, https://matplotlib.org/</dc:title>
     </cc:Agent>
    </dc:creator>
   </cc:Work>
  </rdf:RDF>
 </metadata>
 <defs>
  <style type="text/css">*{stroke-linejoin: round; stroke-linecap: butt}</style>
 </defs>
 <g id="figure_1">
  <g id="patch_1">
   <path d="M 0 108 
L 126 108 
L 126 0 
L 0 0 
z
" style="fill: #ffffff"/>
  </g>
  <g id="axes_1">
   <g id="patch_2">
    <path d="M 15.75 96.12 
L 113.4 96.12 
L 113.4 12.96 
L 15.75 12.96 
z
" style="fill: #ffffff"/>
   </g>
   <g id="matplotlib.axis_1">
    <g id="xtick_1">
     <g id="line2d_1">
      <defs>
       <path id="mecda3a4919" d="M 0 0 
L 0 2 
" style="stroke: #000000; stroke-width: 0.8"/>
      </defs>
      <g>
       <use xlink:href="#mecda3a4919" x="25.515" y="96.12" style="stroke: #000000; stroke-width: 0.8"/>
      </g>
     </g>
     <g id="text_1">
      <text style="font: 6px 'Arial', sans-serif; text-anchor: middle" x="25.515" y="104.414687" transform="rotate(-0 25.515 104.414687)">0</text>
     </g>
    </g>
    <g id="xtick_2">
     <g id="line2d_2">
      <g>
       <use xlink:href="#mecda3a4919" x="45.045" y="96.12" style="stroke: #000000; stroke-width: 0.8"/>
      </g>
     </g>
     <g id="text_2">
      <text style="font: 6px 'Arial', sans-serif; text-anchor: middle" x="45.045" y="104.414687" transform="rotate(-0 45.045 104.414687)">1</text>
     </g>
    </g>
    <g id="xtick_3">
     <g id="line2d_3">
      <g>
       <use xlink:href="#mecda3a4919" x="64.575" y="96.12" style="stroke: #000000; stroke-width: 0.8"/>
      </g>
     </g>
     <g id="text_3">
      <text style="font: 6px 'Arial', sans-serif; text-anchor: middle" x="64.575" y="104.414687" transform="rotate(-0 64.575 104.414687)">2</text>
     </g>
    </g>
    <g id="xtick_4">
     <g id="line2d_4">
      <g>
       <use xlink:href="#mecda3a4919" x="84.105" y="96.12" style="stroke: #000000; stroke-width: 0.8"/>
      </g>
     </g>
     <g id="text_4">
      <text style="font: 6px 'Arial', sans-serif; text-anchor: middle" x="84.105" y="104.414687" transform="rotate(-0 84.105 104.414687)">3</text>
     </g>
    </g>
    <g id="xtick_5">
     <g id="line2d_5">
      <g>
       <use xlink:href="#mecda3a4919" x="103.635" y="96.12" style="stroke: #000000; stroke-width: 0.8"/>
      </g>
     </g>
     <g id="text_5">
      <text style="font: 6px 'Arial', sans-serif; text-anchor: middle" x="103.635" y="104.414687" transform="rotate(-0 103.635 104.414687)">4</text>
     </g>
    </g>
    <g id="text_6">
     <text style="font: 7px 'Arial', sans-serif; text-anchor: middle" x="64.575" y="110.702969" transform="rotate(-0 64.575 110.702969)">Bandwidth (octaves)</text>
    </g>
   </g>
   <g id="matplotlib.axis_2">
    <g id="ytick_1">
     <g id="line2d_6">
      <defs>
       <path id="mab2a9120cd" d="M 0 0 
L -2 0 
" style="stroke: #000000; stroke-width: 0.8"/>
      </defs>
      <g>
       <use xlink:href="#mab2a9120cd" x="15.75" y="96.12" style="stroke: #000000; stroke-width: 0.8"/>
      </g>
     </g>
     <g id="text_7">
      <text style="font: 6px 'Arial', sans-serif; text-anchor: end" x="11.75" y="98.267344" transform="rotate(-0 11.75 98.267344)">0.0</text>
     </g>
    </g>
    <g id="ytick_2">
     <g id="line2d_7">
      <g>
       <use xlink:href="#mab2a9120cd" x="15.75" y="68.4" style="stroke: #000000; stroke-width: 0.8"/>
      </g>
     </g>
     <g id="text_8">
      <text style="font: 6px 'Arial', sans-serif; text-anchor: end" x="11.75" y="70.547344" transform="rotate(-0 11.75 70.547344)">0.2</text>
     </g>
    </g>
    <g id="ytick_3">
     <g id="line2d_8">
      <g>
       <use xlink:href="#mab2a9120cd" x="15.75" y="40.68" style="stroke: #000000; stroke-width: 0.8"/>
      </g>
     </g>
     <g id="text_9">
      <text style="font: 6px 'Arial', sans-serif; text-anchor: end" x="11.75" y="42.827344" transform="rotate(-0 11.75 42.827344)">0.4</text>
     </g>
    </g>
    <g id="ytick_4">
     <g id="line2d_9">
      <g>
       <use xlink:href="#mab2a9120cd" x="15.75" y="12.96" style="stroke: #000000; stroke-width: 0.8"/>
      </g>
     </g>
     <g id="text_10">
      <text style="font: 6px 'Arial', sans-serif; text-anchor: end" x="11.75" y="15.107344" transform="rotate(-0 11.75 15.107344)">0.6</text>
     </g>
    </g>
    <g id="text_11">
     <text style="font: 7px 'Arial', sans-serif; text-anchor: middle" x="2.01875" y="54.54" transform="rotate(-90 2.01875 54.54)">Proportion of neurons</text>
    </g>
   </g>
   <g id="line2d_10">
    <path d="M 25.515 23.938206 
L 45.045 54.352881 
L 64.575 74.885459 
L 84.105 93.027262 
L 103.635 95.796191 
" clip-path="url(#p94eac2987c)" style="fill: none; stroke: #000000; stroke-linecap: square"/>
    <defs>
     <path id="ma47c591d64" d="M 0 1 
C 0.265203 1 0.51958 0.894634 0.707107 0.707107 
C 0.894634 0.51958 1 0.265203 1 0 
C 1 -0.265203 0.894634 -0.51958 0.707107 -0.707107 
C 0.51958 -0.894634 0.265203 -1 0 -1 
C -0.265203 -1 -0.51958 -0.894634 -0.707107 -0.707107 
C -0.894634 -0.51958 -1 -0.265203 -1 0 
C -1 0.265203 -0.894634 0.51958 -0.707107 0.707107 
C -0.51958 0.894634 -0.265203 1 0 1 
z
" style="stroke: #000000; stroke-width: 0.75"/>
    </defs>
    <g clip-path="url(#p94eac2987c)">
     <use xlink:href="#ma47c591d64" x="25.515" y="23.938206" style="stroke: #000000; stroke-width: 0.75"/>
     <use xlink:href="#ma47c591d64" x="45.045" y="54.352881" style="stroke: #000000; stroke-width: 0.75"/>
     <use xlink:href="#ma47c591d64" x="64.575" y="74.885459" style="stroke: #000000; stroke-width: 0.75"/>
     <use xlink:href="#ma47c591d64" x="84.105" y="93.027262" style="stroke: #000000; stroke-width: 0.75"/>
     <use xlink:href="#ma47c591d64" x="103.635" y="95.796191" style="stroke: #000000; stroke-width: 0.75"/>
    </g>
   </g>
   <g id="line2d_11">
    <path d="M 25.515 32.332578 
L 25.515 15.543834 
" clip-path="url(#p94eac2987c)" style="fill: none; stroke: #000000; stroke-linecap: square"/>
   </g>
   <g id="line2d_12">
    <path d="M 45.045 59.253251 
L 45.045 49.452512 
" clip-path="url(#p94eac2987c)" style="fill: none; stroke: #000000; stroke-linecap: square"/>
   </g>
   <g id="line2d_13">
    <path d="M 64.575 79.092868 
L 64.575 70.678051 
" clip-path="url(#p94eac2987c)" style="fill: none; stroke: #000000; stroke-linecap: square"/>
   </g>
   <g id="line2d_14">
    <path d="M 84.105 93.836473 
L 84.105 92.21805 
" clip-path="url(#p94eac2987c)" style="fill: none; stroke: #000000; stroke-linecap: square"/>
   </g>
   <g id="line2d_15">
    <path d="M 103.635 95.942043 
L 103.635 95.65034 
" clip-path="url(#p94eac2987c)" style="fill: none; stroke: #000000; stroke-linecap: square"/>
   </g>
   <g id="line2d_16">
    <path d="M 25.515 38.482438 
L 45.045 70.168634 
L 64.575 73.952086 
L 84.105 77.177818 
L 103.635 82.219025 
" clip-path="url(#p94eac2987c)" style="fill: none; stroke: #dd0000; stroke-linecap: square"/>
    <defs>
     <path id="m7946ce9c33" d="M 0 1 
C 0.265203 1 0.51958 0.894634 0.707107 0.707107 
C 0.894634 0.51958 1 0.265203 1 0 
C 1 -0.265203 0.894634 -0.51958 0.707107 -0.707107 
C 0.51958 -0.894634 0.265203 -1 0 -1 
C -0.265203 -1 -0.51958 -0.894634 -0.707107 -0.707107 
C -0.894634 -0.51958 -1 -0.265203 -1 0 
C -1 0.265203 -0.894634 0.51958 -0.707107 0.707107 
C -0.51958 0.894634 -0.265203 1 0 1 
z
" style="stroke: #dd0000; stroke-width: 0.75"/>
    </defs>
    <g clip-path="url(#p94eac2987c)">
     <use xlink:href="#m7946ce9c33" x="25.515" y="38.482438" style="fill: #dd0000; stroke: #dd0000; stroke-width: 0.75"/>
     <use xlink:href="#m7946ce9c33" x="45.045" y="70.168634" style="fill: #dd0000; stroke: #dd0000; stroke-width: 0.75"/>
     <use xlink:href="#m7946ce9c33" x="64.575" y="73.952086" style="fill: #dd0000; stroke: #dd0000; stroke-width: 0.75"/>
     <use xlink:href="#m7946ce9c33" x="84.105" y="77.177818" style="fill: #dd0000; stroke: #dd0000; stroke-width: 0.75"/>
     <use xlink:href="#m7946ce9c33" x="103.635" y="82.219025" style="fill: #dd0000; stroke: #dd0000; stroke-width: 0.75"/>
    </g>
   </g>
   <g id="line2d_17">
    <path d="M 25.515 43.103772 
L 25.515 33.861103 
" clip-path="url(#p94eac2987c)" style="fill: none; stroke: #dd0000; stroke-linecap: square"/>
   </g>
   <g id="line2d_18">
    <path d="M 45.045 71.768345 
L 45.045 68.568922 
" clip-path="url(#p94eac2987c)" style="fill: none; stroke: #dd0000; stroke-linecap: square"/>
   </g>
   <g id="line2d_19">
    <path d="M 64.575 75.186537 
L 64.575 72.717635 
" clip-path="url(#p94eac2987c)" style="fill: none; stroke: #dd0000; stroke-linecap: square"/>
   </g>
   <g id="line2d_20">
    <path d="M 84.105 80.147474 
L 84.105 74.208161 
" clip-path="url(#p94eac2987c)" style="fill: none; stroke: #dd0000; stroke-linecap: square"/>
   </g>
   <g id="line2d_21">
    <path d="M 103.635 84.281937 
L 103.635 80.156113 
" clip-path="url(#p94eac2987c)" style="fill: none; stroke: #dd0000; stroke-linecap: square"/>
   </g>
   <g id="line2d_22">
    <path d="M 25.515 23.712649 
L 45.045 69.410311 
L 64.575 80.584628 
L 84.105 81.428472 
L 103.635 86.863939 
" clip-path="url(#p94eac2987c)" style="fill: none; stroke: #ffcc00; stroke-linecap: square"/>
    <defs>
     <path id="me23db31b3f" d="M 0 1 
C 0.265203 1 0.51958 0.894634 0.707107 0.707107 
C 0.894634 0.51958 1 0.265203 1 0 
C 1 -0.265203 0.894634 -0.51958 0.707107 -0.707107 
C 0.51958 -0.894634 0.265203 -1 0 -1 
C -0.265203 -1 -0.51958 -0.894634 -0.707107 -0.707107 
C -0.894634 -0.51958 -1 -0.265203 -1 0 
C -1 0.265203 -0.894634 0.51958 -0.707107 0.707107 
C -0.51958 0.894634 -0.265203 1 0 1 
z
" style="stroke: #ffcc00; stroke-width: 0.75"/>
    </defs>
    <g clip-path="url(#p94eac2987c)">
     <use xlink:href="#me23db31b3f" x="25.515" y="23.712649" style="fill: #ffcc00; stroke: #ffcc00; stroke-width: 0.75"/>
     <use xlink:href="#me23db31b3f" x="45.045" y="69.410311" style="fill: #ffcc00; stroke: #ffcc00; stroke-width: 0.75"/>
     <use xlink:href="#me23db31b3f" x="64.575" y="80.584628" style="fill: #ffcc00; stroke: #ffcc00; stroke-width: 0.75"/>
     <use xlink:href="#me23db31b3f" x="84.105" y="81.428472" style="fill: #ffcc00; stroke: #ffcc00; stroke-width: 0.75"/>
     <use xlink:href="#me23db31b3f" x="103.635" y="86.863939" style="fill: #ffcc00; stroke: #ffcc00; stroke-width: 0.75"/>
    </g>
   </g>
   <g id="line2d_23">
    <path d="M 25.515 27.357712 
L 25.515 20.067586 
" clip-path="url(#p94eac2987c)" style="fill: none; stroke: #ffcc00; stroke-linecap: square"/>
   </g>
   <g id="line2d_24">
    <path d="M 45.045 71.024202 
L 45.045 67.79642 
" clip-path="url(#p94eac2987c)" style="fill: none; stroke: #ffcc00; stroke-linecap: square"/>
   </g>
   <g id="line2d_25">
    <path d="M 64.575 81.517865 
L 64.575 79.651391 
" clip-path="url(#p94eac2987c)" style="fill: none; stroke: #ffcc00; stroke-linecap: square"/>
   </g>
   <g id="line2d_26">
    <path d="M 84.105 84.801732 
L 84.105 78.055213 
" clip-path="url(#p94eac2987c)" style="fill: none; stroke: #ffcc00; stroke-linecap: square"/>
   </g>
   <g id="line2d_27">
    <path d="M 103.635 88.431503 
L 103.635 85.296376 
" clip-path="url(#p94eac2987c)" style="fill: none; stroke: #ffcc00; stroke-linecap: square"/>
   </g>
   <g id="line2d_28"/>
   <g id="line2d_29"/>
   <g id="line2d_30"/>
   <g id="patch_3">
    <path d="M 15.75 96.12 
L 15.75 12.96 
" style="fill: none; stroke: #000000; stroke-width: 0.8; stroke-linejoin: miter; stroke-linecap: square"/>
   </g>
   <g id="patch_4">
    <path d="M 15.75 96.12 
L 113.4 96.12 
" style="fill: none; stroke: #000000; stroke-width: 0.8; stroke-linejoin: miter; stroke-linecap: square"/>
   </g>
  </g>
 </g>
 <defs>
  <clipPath id="p94eac2987c">
   <rect x="15.75" y="12.96" width="97.65" height="83.16"/>
  </clipPath>
 </defs>
</svg>
