<?xml version="1.0" encoding="utf-8" standalone="no"?>
<!DOCTYPE svg PUBLIC "-//W3C//DTD SVG 1.1//EN"
  "http://www.w3.org/Graphics/SVG/1.1/DTD/svg11.dtd">
<svg xmlns:xlink="http://www.w3.org/1999/xlink" width="126pt" height="108pt" viewBox="0 0 126 108" xmlns="http://www.w3.org/2000/svg" version="1.1">
 <metadata>
  <rdf:RDF xmlns:dc="http://purl.org/dc/elements/1.1/" xmlns:cc="http://creativecommons.org/ns#" xmlns:rdf="http://www.w3.org/1999/02/22-rdf-syntax-ns#">
   <cc:Work>
    <dc:type rdf:resource="http://purl.org/dc/dcmitype/StillImage"/>
    <dc:date>2024-09-12T15:04:33.846285</dc:date>
    <dc:format>image/svg+xml</dc:format>
    <dc:creator>
     <cc:Agent>
      <dc:title>Matplotlib v3.8.4, https://matplotlib.org/</dc:title>
     </cc:Agent>
    </dc:creator>
   </cc:Work>
  </rdf:RDF>
 </metadata>
 <defs>
  <style type="text/css">*{stroke-linejoin: round; stroke-linecap: butt}</style>
 </defs>
 <g id="figure_1">
  <g id="patch_1">
   <path d="M 0 108 
L 126 108 
L 126 0 
L 0 0 
z
" style="fill: #ffffff"/>
  </g>
  <g id="axes_1">
   <g id="patch_2">
    <path d="M 15.75 96.12 
L 113.4 96.12 
L 113.4 12.96 
L 15.75 12.96 
z
" style="fill: #ffffff"/>
   </g>
   <g id="matplotlib.axis_1">
    <g id="xtick_1">
     <g id="line2d_1">
      <defs>
       <path id="m81924edc3c" d="M 0 0 
L 0 2 
" style="stroke: #000000; stroke-width: 0.8"/>
      </defs>
      <g>
       <use xlink:href="#m81924edc3c" x="25.515" y="96.12" style="stroke: #000000; stroke-width: 0.8"/>
      </g>
     </g>
     <g id="text_1">
      <text style="font: 6px 'Arial', sans-serif; text-anchor: middle" x="25.515" y="104.414687" transform="rotate(-0 25.515 104.414687)">4</text>
     </g>
    </g>
    <g id="xtick_2">
     <g id="line2d_2">
      <g>
       <use xlink:href="#m81924edc3c" x="45.045" y="96.12" style="stroke: #000000; stroke-width: 0.8"/>
      </g>
     </g>
     <g id="text_2">
      <text style="font: 6px 'Arial', sans-serif; text-anchor: middle" x="45.045" y="104.414687" transform="rotate(-0 45.045 104.414687)">8</text>
     </g>
    </g>
    <g id="xtick_3">
     <g id="line2d_3">
      <g>
       <use xlink:href="#m81924edc3c" x="64.575" y="96.12" style="stroke: #000000; stroke-width: 0.8"/>
      </g>
     </g>
     <g id="text_3">
      <text style="font: 6px 'Arial', sans-serif; text-anchor: middle" x="64.575" y="104.414687" transform="rotate(-0 64.575 104.414687)">16</text>
     </g>
    </g>
    <g id="xtick_4">
     <g id="line2d_4">
      <g>
       <use xlink:href="#m81924edc3c" x="84.105" y="96.12" style="stroke: #000000; stroke-width: 0.8"/>
      </g>
     </g>
     <g id="text_4">
      <text style="font: 6px 'Arial', sans-serif; text-anchor: middle" x="84.105" y="104.414687" transform="rotate(-0 84.105 104.414687)">32</text>
     </g>
    </g>
    <g id="xtick_5">
     <g id="line2d_5">
      <g>
       <use xlink:href="#m81924edc3c" x="103.635" y="96.12" style="stroke: #000000; stroke-width: 0.8"/>
      </g>
     </g>
     <g id="text_5">
      <text style="font: 6px 'Arial', sans-serif; text-anchor: middle" x="103.635" y="104.414687" transform="rotate(-0 103.635 104.414687)">64</text>
     </g>
    </g>
    <g id="text_6">
     <text style="font: 7px 'Arial', sans-serif; text-anchor: middle" x="64.575" y="110.702969" transform="rotate(-0 64.575 110.702969)">Characteristic frequency (kHz)</text>
    </g>
   </g>
   <g id="matplotlib.axis_2">
    <g id="ytick_1">
     <g id="line2d_6">
      <defs>
       <path id="mcb933953a6" d="M 0 0 
L -2 0 
" style="stroke: #000000; stroke-width: 0.8"/>
      </defs>
      <g>
       <use xlink:href="#mcb933953a6" x="15.75" y="96.12" style="stroke: #000000; stroke-width: 0.8"/>
      </g>
     </g>
     <g id="text_7">
      <text style="font: 6px 'Arial', sans-serif; text-anchor: end" x="11.75" y="98.267344" transform="rotate(-0 11.75 98.267344)">0.00</text>
     </g>
    </g>
    <g id="ytick_2">
     <g id="line2d_7">
      <g>
       <use xlink:href="#mcb933953a6" x="15.75" y="54.54" style="stroke: #000000; stroke-width: 0.8"/>
      </g>
     </g>
     <g id="text_8">
      <text style="font: 6px 'Arial', sans-serif; text-anchor: end" x="11.75" y="56.687344" transform="rotate(-0 11.75 56.687344)">0.25</text>
     </g>
    </g>
    <g id="ytick_3">
     <g id="line2d_8">
      <g>
       <use xlink:href="#mcb933953a6" x="15.75" y="12.96" style="stroke: #000000; stroke-width: 0.8"/>
      </g>
     </g>
     <g id="text_9">
      <text style="font: 6px 'Arial', sans-serif; text-anchor: end" x="11.75" y="15.107344" transform="rotate(-0 11.75 15.107344)">0.50</text>
     </g>
    </g>
    <g id="text_10">
     <text style="font: 7px 'Arial', sans-serif; text-anchor: middle" x="-1.317812" y="54.54" transform="rotate(-90 -1.317812 54.54)">Proportion of neurons</text>
    </g>
   </g>
   <g id="line2d_9">
    <path d="M 25.515 73.364621 
L 45.045 34.088599 
L 64.575 42.897924 
L 84.105 78.211842 
L 103.635 85.717014 
" style="fill: none; stroke: #000000; stroke-linecap: square"/>
    <defs>
     <path id="me22c3c39d2" d="M 0 1 
C 0.265203 1 0.51958 0.894634 0.707107 0.707107 
C 0.894634 0.51958 1 0.265203 1 0 
C 1 -0.265203 0.894634 -0.51958 0.707107 -0.707107 
C 0.51958 -0.894634 0.265203 -1 0 -1 
C -0.265203 -1 -0.51958 -0.894634 -0.707107 -0.707107 
C -0.894634 -0.51958 -1 -0.265203 -1 0 
C -1 0.265203 -0.894634 0.51958 -0.707107 0.707107 
C -0.51958 0.894634 -0.265203 1 0 1 
z
" style="stroke: #000000; stroke-width: 0.75"/>
    </defs>
    <g>
     <use xlink:href="#me22c3c39d2" x="25.515" y="73.364621" style="stroke: #000000; stroke-width: 0.75"/>
     <use xlink:href="#me22c3c39d2" x="45.045" y="34.088599" style="stroke: #000000; stroke-width: 0.75"/>
     <use xlink:href="#me22c3c39d2" x="64.575" y="42.897924" style="stroke: #000000; stroke-width: 0.75"/>
     <use xlink:href="#me22c3c39d2" x="84.105" y="78.211842" style="stroke: #000000; stroke-width: 0.75"/>
     <use xlink:href="#me22c3c39d2" x="103.635" y="85.717014" style="stroke: #000000; stroke-width: 0.75"/>
    </g>
   </g>
   <g id="line2d_10">
    <path d="M 25.515 77.340968 
L 25.515 69.388274 
" clip-path="url(#pc0112164d8)" style="fill: none; stroke: #000000; stroke-linecap: square"/>
   </g>
   <g id="line2d_11">
    <path d="M 45.045 46.384 
L 45.045 21.793198 
" clip-path="url(#pc0112164d8)" style="fill: none; stroke: #000000; stroke-linecap: square"/>
   </g>
   <g id="line2d_12">
    <path d="M 64.575 55.057479 
L 64.575 30.738369 
" clip-path="url(#pc0112164d8)" style="fill: none; stroke: #000000; stroke-linecap: square"/>
   </g>
   <g id="line2d_13">
    <path d="M 84.105 86.116041 
L 84.105 70.307643 
" clip-path="url(#pc0112164d8)" style="fill: none; stroke: #000000; stroke-linecap: square"/>
   </g>
   <g id="line2d_14">
    <path d="M 103.635 87.57019 
L 103.635 83.863839 
" clip-path="url(#pc0112164d8)" style="fill: none; stroke: #000000; stroke-linecap: square"/>
   </g>
   <g id="line2d_15">
    <path d="M 25.515 78.700334 
L 45.045 67.952207 
L 64.575 49.36803 
L 84.105 53.272097 
L 103.635 64.987331 
" style="fill: none; stroke: #dd0000; stroke-linecap: square"/>
    <defs>
     <path id="m2ac0218320" d="M 0 1 
C 0.265203 1 0.51958 0.894634 0.707107 0.707107 
C 0.894634 0.51958 1 0.265203 1 0 
C 1 -0.265203 0.894634 -0.51958 0.707107 -0.707107 
C 0.51958 -0.894634 0.265203 -1 0 -1 
C -0.265203 -1 -0.51958 -0.894634 -0.707107 -0.707107 
C -0.894634 -0.51958 -1 -0.265203 -1 0 
C -1 0.265203 -0.894634 0.51958 -0.707107 0.707107 
C -0.51958 0.894634 -0.265203 1 0 1 
z
" style="stroke: #dd0000; stroke-width: 0.75"/>
    </defs>
    <g>
     <use xlink:href="#m2ac0218320" x="25.515" y="78.700334" style="fill: #dd0000; stroke: #dd0000; stroke-width: 0.75"/>
     <use xlink:href="#m2ac0218320" x="45.045" y="67.952207" style="fill: #dd0000; stroke: #dd0000; stroke-width: 0.75"/>
     <use xlink:href="#m2ac0218320" x="64.575" y="49.36803" style="fill: #dd0000; stroke: #dd0000; stroke-width: 0.75"/>
     <use xlink:href="#m2ac0218320" x="84.105" y="53.272097" style="fill: #dd0000; stroke: #dd0000; stroke-width: 0.75"/>
     <use xlink:href="#m2ac0218320" x="103.635" y="64.987331" style="fill: #dd0000; stroke: #dd0000; stroke-width: 0.75"/>
    </g>
   </g>
   <g id="line2d_16">
    <path d="M 25.515 80.909676 
L 25.515 76.490992 
" clip-path="url(#pc0112164d8)" style="fill: none; stroke: #dd0000; stroke-linecap: square"/>
   </g>
   <g id="line2d_17">
    <path d="M 45.045 72.136174 
L 45.045 63.768241 
" clip-path="url(#pc0112164d8)" style="fill: none; stroke: #dd0000; stroke-linecap: square"/>
   </g>
   <g id="line2d_18">
    <path d="M 64.575 53.78452 
L 64.575 44.95154 
" clip-path="url(#pc0112164d8)" style="fill: none; stroke: #dd0000; stroke-linecap: square"/>
   </g>
   <g id="line2d_19">
    <path d="M 84.105 58.172819 
L 84.105 48.371376 
" clip-path="url(#pc0112164d8)" style="fill: none; stroke: #dd0000; stroke-linecap: square"/>
   </g>
   <g id="line2d_20">
    <path d="M 103.635 70.270644 
L 103.635 59.704018 
" clip-path="url(#pc0112164d8)" style="fill: none; stroke: #dd0000; stroke-linecap: square"/>
   </g>
   <g id="line2d_21">
    <path d="M 25.515 59.218719 
L 45.045 77.38475 
L 64.575 66.615906 
L 84.105 57.98011 
L 103.635 53.080516 
" style="fill: none; stroke: #ffcc00; stroke-linecap: square"/>
    <defs>
     <path id="m592309cb10" d="M 0 1 
C 0.265203 1 0.51958 0.894634 0.707107 0.707107 
C 0.894634 0.51958 1 0.265203 1 0 
C 1 -0.265203 0.894634 -0.51958 0.707107 -0.707107 
C 0.51958 -0.894634 0.265203 -1 0 -1 
C -0.265203 -1 -0.51958 -0.894634 -0.707107 -0.707107 
C -0.894634 -0.51958 -1 -0.265203 -1 0 
C -1 0.265203 -0.894634 0.51958 -0.707107 0.707107 
C -0.51958 0.894634 -0.265203 1 0 1 
z
" style="stroke: #ffcc00; stroke-width: 0.75"/>
    </defs>
    <g>
     <use xlink:href="#m592309cb10" x="25.515" y="59.218719" style="fill: #ffcc00; stroke: #ffcc00; stroke-width: 0.75"/>
     <use xlink:href="#m592309cb10" x="45.045" y="77.38475" style="fill: #ffcc00; stroke: #ffcc00; stroke-width: 0.75"/>
     <use xlink:href="#m592309cb10" x="64.575" y="66.615906" style="fill: #ffcc00; stroke: #ffcc00; stroke-width: 0.75"/>
     <use xlink:href="#m592309cb10" x="84.105" y="57.98011" style="fill: #ffcc00; stroke: #ffcc00; stroke-width: 0.75"/>
     <use xlink:href="#m592309cb10" x="103.635" y="53.080516" style="fill: #ffcc00; stroke: #ffcc00; stroke-width: 0.75"/>
    </g>
   </g>
   <g id="line2d_22">
    <path d="M 25.515 66.362076 
L 25.515 52.075362 
" clip-path="url(#pc0112164d8)" style="fill: none; stroke: #ffcc00; stroke-linecap: square"/>
   </g>
   <g id="line2d_23">
    <path d="M 45.045 81.75593 
L 45.045 73.01357 
" clip-path="url(#pc0112164d8)" style="fill: none; stroke: #ffcc00; stroke-linecap: square"/>
   </g>
   <g id="line2d_24">
    <path d="M 64.575 70.841342 
L 64.575 62.390469 
" clip-path="url(#pc0112164d8)" style="fill: none; stroke: #ffcc00; stroke-linecap: square"/>
   </g>
   <g id="line2d_25">
    <path d="M 84.105 66.260941 
L 84.105 49.699278 
" clip-path="url(#pc0112164d8)" style="fill: none; stroke: #ffcc00; stroke-linecap: square"/>
   </g>
   <g id="line2d_26">
    <path d="M 103.635 59.277361 
L 103.635 46.883671 
" clip-path="url(#pc0112164d8)" style="fill: none; stroke: #ffcc00; stroke-linecap: square"/>
   </g>
   <g id="line2d_27"/>
   <g id="line2d_28"/>
   <g id="line2d_29"/>
   <g id="patch_3">
    <path d="M 15.75 96.12 
L 15.75 12.96 
" style="fill: none; stroke: #000000; stroke-width: 0.8; stroke-linejoin: miter; stroke-linecap: square"/>
   </g>
   <g id="patch_4">
    <path d="M 15.75 96.12 
L 113.4 96.12 
" style="fill: none; stroke: #000000; stroke-width: 0.8; stroke-linejoin: miter; stroke-linecap: square"/>
   </g>
  </g>
 </g>
 <defs>
  <clipPath id="pc0112164d8">
   <rect x="15.75" y="12.96" width="97.65" height="83.16"/>
  </clipPath>
 </defs>
</svg>
