<?xml version="1.0" encoding="utf-8" standalone="no"?>
<!DOCTYPE svg PUBLIC "-//W3C//DTD SVG 1.1//EN"
  "http://www.w3.org/Graphics/SVG/1.1/DTD/svg11.dtd">
<svg xmlns:xlink="http://www.w3.org/1999/xlink" width="108pt" height="108pt" viewBox="0 0 108 108" xmlns="http://www.w3.org/2000/svg" version="1.1">
 <metadata>
  <rdf:RDF xmlns:dc="http://purl.org/dc/elements/1.1/" xmlns:cc="http://creativecommons.org/ns#" xmlns:rdf="http://www.w3.org/1999/02/22-rdf-syntax-ns#">
   <cc:Work>
    <dc:type rdf:resource="http://purl.org/dc/dcmitype/StillImage"/>
    <dc:date>2024-09-12T15:05:01.859749</dc:date>
    <dc:format>image/svg+xml</dc:format>
    <dc:creator>
     <cc:Agent>
      <dc:title>Matplotlib v3.8.4, https://matplotlib.org/</dc:title>
     </cc:Agent>
    </dc:creator>
   </cc:Work>
  </rdf:RDF>
 </metadata>
 <defs>
  <style type="text/css">*{stroke-linejoin: round; stroke-linecap: butt}</style>
 </defs>
 <g id="figure_1">
  <g id="patch_1">
   <path d="M 0 108 
L 108 108 
L 108 0 
L 0 0 
z
" style="fill: #ffffff"/>
  </g>
  <g id="axes_1">
   <g id="patch_2">
    <path d="M 13.5 96.12 
L 97.2 96.12 
L 97.2 12.96 
L 13.5 12.96 
z
" style="fill: #ffffff"/>
   </g>
   <g id="matplotlib.axis_1">
    <g id="xtick_1">
     <g id="line2d_1">
      <defs>
       <path id="m333495bae1" d="M 0 0 
L 0 2 
" style="stroke: #000000; stroke-width: 0.8"/>
      </defs>
      <g>
       <use xlink:href="#m333495bae1" x="27.45" y="96.12" style="stroke: #000000; stroke-width: 0.8"/>
      </g>
     </g>
     <g id="text_1">
      <text style="font: 6px 'Arial', sans-serif; text-anchor: middle" x="27.45" y="104.414687" transform="rotate(-0 27.45 104.414687)">ahl B6</text>
     </g>
    </g>
    <g id="xtick_2">
     <g id="line2d_2">
      <g>
       <use xlink:href="#m333495bae1" x="55.35" y="96.12" style="stroke: #000000; stroke-width: 0.8"/>
      </g>
     </g>
     <g id="text_2">
      <text style="font: 6px 'Arial', sans-serif; text-anchor: middle" x="55.35" y="104.414687" transform="rotate(-0 55.35 104.414687)">Ahl+ B6</text>
     </g>
    </g>
    <g id="xtick_3">
     <g id="line2d_3">
      <g>
       <use xlink:href="#m333495bae1" x="83.25" y="96.12" style="stroke: #000000; stroke-width: 0.8"/>
      </g>
     </g>
     <g id="text_3">
      <text style="font: 6px 'Arial', sans-serif" transform="translate(77.161875 104.414687)">Ahl+</text>
      <text style="font: 6px 'Arial', sans-serif" transform="translate(72.578438 110.760813)">CBA.B6</text>
     </g>
    </g>
   </g>
   <g id="matplotlib.axis_2">
    <g id="ytick_1">
     <g id="line2d_4">
      <defs>
       <path id="mb3151c4729" d="M 0 0 
L -2 0 
" style="stroke: #000000; stroke-width: 0.8"/>
      </defs>
      <g>
       <use xlink:href="#mb3151c4729" x="13.5" y="96.12" style="stroke: #000000; stroke-width: 0.8"/>
      </g>
     </g>
     <g id="text_4">
      <text style="font: 6px 'Arial', sans-serif; text-anchor: end" x="9.5" y="98.267344" transform="rotate(-0 9.5 98.267344)">0</text>
     </g>
    </g>
    <g id="ytick_2">
     <g id="line2d_5">
      <g>
       <use xlink:href="#mb3151c4729" x="13.5" y="68.4" style="stroke: #000000; stroke-width: 0.8"/>
      </g>
     </g>
     <g id="text_5">
      <text style="font: 6px 'Arial', sans-serif; text-anchor: end" x="9.5" y="70.547344" transform="rotate(-0 9.5 70.547344)">25</text>
     </g>
    </g>
    <g id="ytick_3">
     <g id="line2d_6">
      <g>
       <use xlink:href="#mb3151c4729" x="13.5" y="40.68" style="stroke: #000000; stroke-width: 0.8"/>
      </g>
     </g>
     <g id="text_6">
      <text style="font: 6px 'Arial', sans-serif; text-anchor: end" x="9.5" y="42.827344" transform="rotate(-0 9.5 42.827344)">50</text>
     </g>
    </g>
    <g id="ytick_4">
     <g id="line2d_7">
      <g>
       <use xlink:href="#mb3151c4729" x="13.5" y="12.96" style="stroke: #000000; stroke-width: 0.8"/>
      </g>
     </g>
     <g id="text_7">
      <text style="font: 6px 'Arial', sans-serif; text-anchor: end" x="9.5" y="15.107344" transform="rotate(-0 9.5 15.107344)">75</text>
     </g>
    </g>
    <g id="text_8">
     <text style="font: 7px 'Arial', sans-serif; text-anchor: middle" x="1.353594" y="54.54" transform="rotate(-90 1.353594 54.54)">Responsive neurons (%)</text>
    </g>
   </g>
   <g id="line2d_8">
    <path d="M 55.35 61.151777 
" clip-path="url(#p229b6d08d3)" style="fill: none; stroke: #dd0000; stroke-width: 1.5; stroke-linecap: square"/>
    <defs>
     <path id="m7466f41694" d="M 0 2 
C 0.530406 2 1.03916 1.789267 1.414214 1.414214 
C 1.789267 1.03916 2 0.530406 2 0 
C 2 -0.530406 1.789267 -1.03916 1.414214 -1.414214 
C 1.03916 -1.789267 0.530406 -2 0 -2 
C -0.530406 -2 -1.03916 -1.789267 -1.414214 -1.414214 
C -1.789267 -1.03916 -2 -0.530406 -2 0 
C -2 0.530406 -1.789267 1.03916 -1.414214 1.414214 
C -1.03916 1.789267 -0.530406 2 0 2 
z
" style="stroke: #dd0000; stroke-width: 1.125"/>
    </defs>
    <g clip-path="url(#p229b6d08d3)">
     <use xlink:href="#m7466f41694" x="55.35" y="61.151777" style="fill: #dd0000; stroke: #dd0000; stroke-width: 1.125"/>
    </g>
   </g>
   <g id="line2d_9">
    <path clip-path="url(#p229b6d08d3)" style="fill: none; stroke: #dd0000; stroke-width: 1.5; stroke-linecap: square"/>
   </g>
   <g id="line2d_10">
    <path d="M 55.35 65.235279 
L 55.35 57.068274 
" clip-path="url(#p229b6d08d3)" style="fill: none; stroke: #dd0000; stroke-width: 1.5; stroke-linecap: square"/>
   </g>
   <g id="line2d_11">
    <path clip-path="url(#p229b6d08d3)" style="fill: none; stroke: #dd0000; stroke-width: 1.5; stroke-linecap: square"/>
   </g>
   <g id="line2d_12">
    <path d="M 27.45 66.955149 
" clip-path="url(#p229b6d08d3)" style="fill: none; stroke: #000000; stroke-width: 1.5; stroke-linecap: square"/>
    <defs>
     <path id="m7da91f72a9" d="M 0 2 
C 0.530406 2 1.03916 1.789267 1.414214 1.414214 
C 1.789267 1.03916 2 0.530406 2 0 
C 2 -0.530406 1.789267 -1.03916 1.414214 -1.414214 
C 1.03916 -1.789267 0.530406 -2 0 -2 
C -0.530406 -2 -1.03916 -1.789267 -1.414214 -1.414214 
C -1.789267 -1.03916 -2 -0.530406 -2 0 
C -2 0.530406 -1.789267 1.03916 -1.414214 1.414214 
C -1.03916 1.789267 -0.530406 2 0 2 
z
" style="stroke: #000000; stroke-width: 1.125"/>
    </defs>
    <g clip-path="url(#p229b6d08d3)">
     <use xlink:href="#m7da91f72a9" x="27.45" y="66.955149" style="stroke: #000000; stroke-width: 1.125"/>
    </g>
   </g>
   <g id="line2d_13">
    <path d="M 27.45 69.995823 
L 27.45 63.914474 
" clip-path="url(#p229b6d08d3)" style="fill: none; stroke: #000000; stroke-width: 1.5; stroke-linecap: square"/>
   </g>
   <g id="line2d_14">
    <path clip-path="url(#p229b6d08d3)" style="fill: none; stroke: #000000; stroke-width: 1.5; stroke-linecap: square"/>
   </g>
   <g id="line2d_15">
    <path clip-path="url(#p229b6d08d3)" style="fill: none; stroke: #000000; stroke-width: 1.5; stroke-linecap: square"/>
   </g>
   <g id="line2d_16">
    <path d="M 83.25 70.836606 
" clip-path="url(#p229b6d08d3)" style="fill: none; stroke: #ffcc00; stroke-width: 1.5; stroke-linecap: square"/>
    <defs>
     <path id="mf4f1438fe4" d="M 0 2 
C 0.530406 2 1.03916 1.789267 1.414214 1.414214 
C 1.789267 1.03916 2 0.530406 2 0 
C 2 -0.530406 1.789267 -1.03916 1.414214 -1.414214 
C 1.03916 -1.789267 0.530406 -2 0 -2 
C -0.530406 -2 -1.03916 -1.789267 -1.414214 -1.414214 
C -1.789267 -1.03916 -2 -0.530406 -2 0 
C -2 0.530406 -1.789267 1.03916 -1.414214 1.414214 
C -1.03916 1.789267 -0.530406 2 0 2 
z
" style="stroke: #ffcc00; stroke-width: 1.125"/>
    </defs>
    <g clip-path="url(#p229b6d08d3)">
     <use xlink:href="#mf4f1438fe4" x="83.25" y="70.836606" style="fill: #ffcc00; stroke: #ffcc00; stroke-width: 1.125"/>
    </g>
   </g>
   <g id="line2d_17">
    <path clip-path="url(#p229b6d08d3)" style="fill: none; stroke: #ffcc00; stroke-width: 1.5; stroke-linecap: square"/>
   </g>
   <g id="line2d_18">
    <path clip-path="url(#p229b6d08d3)" style="fill: none; stroke: #ffcc00; stroke-width: 1.5; stroke-linecap: square"/>
   </g>
   <g id="line2d_19">
    <path d="M 83.25 72.353728 
L 83.25 69.319484 
" clip-path="url(#p229b6d08d3)" style="fill: none; stroke: #ffcc00; stroke-width: 1.5; stroke-linecap: square"/>
   </g>
   <g id="patch_3">
    <path d="M 13.5 96.12 
L 13.5 12.96 
" style="fill: none; stroke: #000000; stroke-width: 0.8; stroke-linejoin: miter; stroke-linecap: square"/>
   </g>
   <g id="patch_4">
    <path d="M 13.5 96.12 
L 97.2 96.12 
" style="fill: none; stroke: #000000; stroke-width: 0.8; stroke-linejoin: miter; stroke-linecap: square"/>
   </g>
   <g id="PathCollection_1">
    <path d="M 25.391336 68.454894 
L 23.891336 71.454894 
L 26.891336 71.454894 
z
" clip-path="url(#p229b6d08d3)" style="fill-opacity: 0.3"/>
    <path d="M 31.840232 63.036 
L 30.340232 66.036 
L 33.340232 66.036 
z
" clip-path="url(#p229b6d08d3)" style="fill-opacity: 0.3"/>
    <path d="M 25.048275 52.537884 
L 23.548275 55.537884 
L 26.548275 55.537884 
z
" clip-path="url(#p229b6d08d3)" style="fill-opacity: 0.3"/>
    <path d="M 32.220143 66.421152 
L 30.720143 69.421152 
L 33.720143 69.421152 
z
" clip-path="url(#p229b6d08d3)" style="fill-opacity: 0.3"/>
   </g>
   <g id="PathCollection_2">
    <path d="M 55.974303 49.387365 
L 54.474303 52.387365 
L 57.474303 52.387365 
z
" clip-path="url(#p229b6d08d3)" style="fill: #dd0000; fill-opacity: 0.3"/>
    <path d="M 55.647107 60.010813 
L 54.147107 63.010813 
L 57.147107 63.010813 
z
" clip-path="url(#p229b6d08d3)" style="fill: #dd0000; fill-opacity: 0.3"/>
   </g>
   <g id="PathCollection_3">
    <path d="M 78.038314 67.556393 
L 76.538314 70.556393 
L 79.538314 70.556393 
z
" clip-path="url(#p229b6d08d3)" style="fill: #ffcc00; fill-opacity: 0.3"/>
    <path d="M 86.53205 66.681732 
L 85.03205 69.681732 
L 88.03205 69.681732 
z
" clip-path="url(#p229b6d08d3)" style="fill: #ffcc00; fill-opacity: 0.3"/>
    <path d="M 81.478395 66.554263 
L 79.978395 69.554263 
L 82.978395 69.554263 
z
" clip-path="url(#p229b6d08d3)" style="fill: #ffcc00; fill-opacity: 0.3"/>
   </g>
   <g id="PathCollection_4">
    <path d="M 30.164462 83.354737 
L 33.164462 83.354737 
L 33.164462 80.354737 
L 30.164462 80.354737 
z
" clip-path="url(#p229b6d08d3)" style="fill-opacity: 0.3"/>
    <path d="M 23.66599 68.69264 
L 26.66599 68.69264 
L 26.66599 65.69264 
L 23.66599 65.69264 
z
" clip-path="url(#p229b6d08d3)" style="fill-opacity: 0.3"/>
    <path d="M 26.704613 59.292771 
L 29.704613 59.292771 
L 29.704613 56.292771 
L 26.704613 56.292771 
z
" clip-path="url(#p229b6d08d3)" style="fill-opacity: 0.3"/>
    <path d="M 20.792182 73.851111 
L 23.792182 73.851111 
L 23.792182 70.851111 
L 20.792182 70.851111 
z
" clip-path="url(#p229b6d08d3)" style="fill-opacity: 0.3"/>
   </g>
   <g id="PathCollection_5">
    <path d="M 56.401484 77.383982 
L 59.401484 77.383982 
L 59.401484 74.383982 
L 56.401484 74.383982 
z
" clip-path="url(#p229b6d08d3)" style="fill: #dd0000; fill-opacity: 0.3"/>
    <path d="M 55.337208 81.0825 
L 58.337208 81.0825 
L 58.337208 78.0825 
L 55.337208 78.0825 
z
" clip-path="url(#p229b6d08d3)" style="fill: #dd0000; fill-opacity: 0.3"/>
    <path d="M 58.396702 47.292518 
L 61.396702 47.292518 
L 61.396702 44.292518 
L 58.396702 44.292518 
z
" clip-path="url(#p229b6d08d3)" style="fill: #dd0000; fill-opacity: 0.3"/>
    <path d="M 54.28629 59.169677 
L 57.28629 59.169677 
L 57.28629 56.169677 
L 54.28629 56.169677 
z
" clip-path="url(#p229b6d08d3)" style="fill: #dd0000; fill-opacity: 0.3"/>
    <path d="M 58.651473 57.816923 
L 61.651473 57.816923 
L 61.651473 54.816923 
L 58.651473 54.816923 
z
" clip-path="url(#p229b6d08d3)" style="fill: #dd0000; fill-opacity: 0.3"/>
    <path d="M 48.608507 63.070435 
L 51.608507 63.070435 
L 51.608507 60.070435 
L 48.608507 60.070435 
z
" clip-path="url(#p229b6d08d3)" style="fill: #dd0000; fill-opacity: 0.3"/>
   </g>
   <g id="PathCollection_6">
    <path d="M 86.372333 76.952438 
L 89.372333 76.952438 
L 89.372333 73.952438 
L 86.372333 73.952438 
z
" clip-path="url(#p229b6d08d3)" style="fill: #ffcc00; fill-opacity: 0.3"/>
    <path d="M 80.899746 74.938204 
L 83.899746 74.938204 
L 83.899746 71.938204 
L 80.899746 71.938204 
z
" clip-path="url(#p229b6d08d3)" style="fill: #ffcc00; fill-opacity: 0.3"/>
   </g>
  </g>
 </g>
 <defs>
  <clipPath id="p229b6d08d3">
   <rect x="13.5" y="12.96" width="83.7" height="83.16"/>
  </clipPath>
 </defs>
</svg>
