<?xml version="1.0" encoding="utf-8" standalone="no"?>
<!DOCTYPE svg PUBLIC "-//W3C//DTD SVG 1.1//EN"
  "http://www.w3.org/Graphics/SVG/1.1/DTD/svg11.dtd">
<svg xmlns:xlink="http://www.w3.org/1999/xlink" width="93.6pt" height="108pt" viewBox="0 0 93.6 108" xmlns="http://www.w3.org/2000/svg" version="1.1">
 <metadata>
  <rdf:RDF xmlns:dc="http://purl.org/dc/elements/1.1/" xmlns:cc="http://creativecommons.org/ns#" xmlns:rdf="http://www.w3.org/1999/02/22-rdf-syntax-ns#">
   <cc:Work>
    <dc:type rdf:resource="http://purl.org/dc/dcmitype/StillImage"/>
    <dc:date>2024-09-12T15:10:53.567048</dc:date>
    <dc:format>image/svg+xml</dc:format>
    <dc:creator>
     <cc:Agent>
      <dc:title>Matplotlib v3.8.4, https://matplotlib.org/</dc:title>
     </cc:Agent>
    </dc:creator>
   </cc:Work>
  </rdf:RDF>
 </metadata>
 <defs>
  <style type="text/css">*{stroke-linejoin: round; stroke-linecap: butt}</style>
 </defs>
 <g id="figure_1">
  <g id="patch_1">
   <path d="M 0 108 
L 93.6 108 
L 93.6 0 
L 0 0 
z
" style="fill: #ffffff"/>
  </g>
  <g id="axes_1">
   <g id="patch_2">
    <path d="M 11.7 96.12 
L 84.24 96.12 
L 84.24 12.96 
L 11.7 12.96 
z
" style="fill: #ffffff"/>
   </g>
   <g id="matplotlib.axis_1">
    <g id="xtick_1">
     <g id="line2d_1">
      <defs>
       <path id="m8c1a9a1c79" d="M 0 0 
L 0 2 
" style="stroke: #000000; stroke-width: 0.8"/>
      </defs>
      <g>
       <use xlink:href="#m8c1a9a1c79" x="23.79" y="96.12" style="stroke: #000000; stroke-width: 0.8"/>
      </g>
     </g>
     <g id="text_1">
      <text style="font: 6px 'Arial', sans-serif; text-anchor: middle" x="23.79" y="104.414687" transform="rotate(-0 23.79 104.414687)">ahl B6</text>
     </g>
    </g>
    <g id="xtick_2">
     <g id="line2d_2">
      <g>
       <use xlink:href="#m8c1a9a1c79" x="47.97" y="96.12" style="stroke: #000000; stroke-width: 0.8"/>
      </g>
     </g>
     <g id="text_2">
      <text style="font: 6px 'Arial', sans-serif; text-anchor: middle" x="47.97" y="104.414687" transform="rotate(-0 47.97 104.414687)">Ahl+ B6</text>
     </g>
    </g>
    <g id="xtick_3">
     <g id="line2d_3">
      <g>
       <use xlink:href="#m8c1a9a1c79" x="72.15" y="96.12" style="stroke: #000000; stroke-width: 0.8"/>
      </g>
     </g>
     <g id="text_3">
      <text style="font: 6px 'Arial', sans-serif" transform="translate(66.061875 104.414687)">Ahl+</text>
      <text style="font: 6px 'Arial', sans-serif" transform="translate(61.478438 110.760813)">CBA.B6</text>
     </g>
    </g>
   </g>
   <g id="matplotlib.axis_2">
    <g id="ytick_1">
     <g id="line2d_4">
      <defs>
       <path id="md067b94ad4" d="M 0 0 
L -2 0 
" style="stroke: #000000; stroke-width: 0.8"/>
      </defs>
      <g>
       <use xlink:href="#md067b94ad4" x="11.7" y="96.12" style="stroke: #000000; stroke-width: 0.8"/>
      </g>
     </g>
     <g id="text_4">
      <text style="font: 6px 'Arial', sans-serif; text-anchor: end" x="7.7" y="98.267344" transform="rotate(-0 7.7 98.267344)">0.00</text>
     </g>
    </g>
    <g id="ytick_2">
     <g id="line2d_5">
      <g>
       <use xlink:href="#md067b94ad4" x="11.7" y="79.488" style="stroke: #000000; stroke-width: 0.8"/>
      </g>
     </g>
     <g id="text_5">
      <text style="font: 6px 'Arial', sans-serif; text-anchor: end" x="7.7" y="81.635344" transform="rotate(-0 7.7 81.635344)">0.05</text>
     </g>
    </g>
    <g id="ytick_3">
     <g id="line2d_6">
      <g>
       <use xlink:href="#md067b94ad4" x="11.7" y="62.856" style="stroke: #000000; stroke-width: 0.8"/>
      </g>
     </g>
     <g id="text_6">
      <text style="font: 6px 'Arial', sans-serif; text-anchor: end" x="7.7" y="65.003344" transform="rotate(-0 7.7 65.003344)">0.10</text>
     </g>
    </g>
    <g id="ytick_4">
     <g id="line2d_7">
      <g>
       <use xlink:href="#md067b94ad4" x="11.7" y="46.224" style="stroke: #000000; stroke-width: 0.8"/>
      </g>
     </g>
     <g id="text_7">
      <text style="font: 6px 'Arial', sans-serif; text-anchor: end" x="7.7" y="48.371344" transform="rotate(-0 7.7 48.371344)">0.15</text>
     </g>
    </g>
    <g id="ytick_5">
     <g id="line2d_8">
      <g>
       <use xlink:href="#md067b94ad4" x="11.7" y="29.592" style="stroke: #000000; stroke-width: 0.8"/>
      </g>
     </g>
     <g id="text_8">
      <text style="font: 6px 'Arial', sans-serif; text-anchor: end" x="7.7" y="31.739344" transform="rotate(-0 7.7 31.739344)">0.20</text>
     </g>
    </g>
    <g id="ytick_6">
     <g id="line2d_9">
      <g>
       <use xlink:href="#md067b94ad4" x="11.7" y="12.96" style="stroke: #000000; stroke-width: 0.8"/>
      </g>
     </g>
     <g id="text_9">
      <text style="font: 6px 'Arial', sans-serif; text-anchor: end" x="7.7" y="15.107344" transform="rotate(-0 7.7 15.107344)">0.25</text>
     </g>
    </g>
    <g id="text_10">
     <text style="font: 7px 'Arial', sans-serif; text-anchor: middle" x="-9.367812" y="54.54" transform="rotate(-90 -9.367812 54.54)">Correlation coefficient</text>
    </g>
   </g>
   <g id="line2d_10">
    <path d="M 47.97 60.794248 
" clip-path="url(#p65101cfb66)" style="fill: none; stroke: #dd0000; stroke-width: 1.5; stroke-linecap: square"/>
    <defs>
     <path id="mfb5532eb98" d="M 0 2 
C 0.530406 2 1.03916 1.789267 1.414214 1.414214 
C 1.789267 1.03916 2 0.530406 2 0 
C 2 -0.530406 1.789267 -1.03916 1.414214 -1.414214 
C 1.03916 -1.789267 0.530406 -2 0 -2 
C -0.530406 -2 -1.03916 -1.789267 -1.414214 -1.414214 
C -1.789267 -1.03916 -2 -0.530406 -2 0 
C -2 0.530406 -1.789267 1.03916 -1.414214 1.414214 
C -1.03916 1.789267 -0.530406 2 0 2 
z
" style="stroke: #dd0000; stroke-width: 1.125"/>
    </defs>
    <g clip-path="url(#p65101cfb66)">
     <use xlink:href="#mfb5532eb98" x="47.97" y="60.794248" style="fill: #dd0000; stroke: #dd0000; stroke-width: 1.125"/>
    </g>
   </g>
   <g id="line2d_11">
    <path clip-path="url(#p65101cfb66)" style="fill: none; stroke: #dd0000; stroke-width: 1.5; stroke-linecap: square"/>
   </g>
   <g id="line2d_12">
    <path d="M 47.97 63.698644 
L 47.97 57.889852 
" clip-path="url(#p65101cfb66)" style="fill: none; stroke: #dd0000; stroke-width: 1.5; stroke-linecap: square"/>
   </g>
   <g id="line2d_13">
    <path clip-path="url(#p65101cfb66)" style="fill: none; stroke: #dd0000; stroke-width: 1.5; stroke-linecap: square"/>
   </g>
   <g id="line2d_14">
    <path d="M 23.79 42.732878 
" clip-path="url(#p65101cfb66)" style="fill: none; stroke: #000000; stroke-width: 1.5; stroke-linecap: square"/>
    <defs>
     <path id="m2648ef0f8e" d="M 0 2 
C 0.530406 2 1.03916 1.789267 1.414214 1.414214 
C 1.789267 1.03916 2 0.530406 2 0 
C 2 -0.530406 1.789267 -1.03916 1.414214 -1.414214 
C 1.03916 -1.789267 0.530406 -2 0 -2 
C -0.530406 -2 -1.03916 -1.789267 -1.414214 -1.414214 
C -1.789267 -1.03916 -2 -0.530406 -2 0 
C -2 0.530406 -1.789267 1.03916 -1.414214 1.414214 
C -1.03916 1.789267 -0.530406 2 0 2 
z
" style="stroke: #000000; stroke-width: 1.125"/>
    </defs>
    <g clip-path="url(#p65101cfb66)">
     <use xlink:href="#m2648ef0f8e" x="23.79" y="42.732878" style="stroke: #000000; stroke-width: 1.125"/>
    </g>
   </g>
   <g id="line2d_15">
    <path d="M 23.79 47.109162 
L 23.79 38.356595 
" clip-path="url(#p65101cfb66)" style="fill: none; stroke: #000000; stroke-width: 1.5; stroke-linecap: square"/>
   </g>
   <g id="line2d_16">
    <path clip-path="url(#p65101cfb66)" style="fill: none; stroke: #000000; stroke-width: 1.5; stroke-linecap: square"/>
   </g>
   <g id="line2d_17">
    <path clip-path="url(#p65101cfb66)" style="fill: none; stroke: #000000; stroke-width: 1.5; stroke-linecap: square"/>
   </g>
   <g id="line2d_18">
    <path d="M 72.15 84.852326 
" clip-path="url(#p65101cfb66)" style="fill: none; stroke: #ffcc00; stroke-width: 1.5; stroke-linecap: square"/>
    <defs>
     <path id="m2ade6ea90c" d="M 0 2 
C 0.530406 2 1.03916 1.789267 1.414214 1.414214 
C 1.789267 1.03916 2 0.530406 2 0 
C 2 -0.530406 1.789267 -1.03916 1.414214 -1.414214 
C 1.03916 -1.789267 0.530406 -2 0 -2 
C -0.530406 -2 -1.03916 -1.789267 -1.414214 -1.414214 
C -1.789267 -1.03916 -2 -0.530406 -2 0 
C -2 0.530406 -1.789267 1.03916 -1.414214 1.414214 
C -1.03916 1.789267 -0.530406 2 0 2 
z
" style="stroke: #ffcc00; stroke-width: 1.125"/>
    </defs>
    <g clip-path="url(#p65101cfb66)">
     <use xlink:href="#m2ade6ea90c" x="72.15" y="84.852326" style="fill: #ffcc00; stroke: #ffcc00; stroke-width: 1.125"/>
    </g>
   </g>
   <g id="line2d_19">
    <path clip-path="url(#p65101cfb66)" style="fill: none; stroke: #ffcc00; stroke-width: 1.5; stroke-linecap: square"/>
   </g>
   <g id="line2d_20">
    <path clip-path="url(#p65101cfb66)" style="fill: none; stroke: #ffcc00; stroke-width: 1.5; stroke-linecap: square"/>
   </g>
   <g id="line2d_21">
    <path d="M 72.15 87.012667 
L 72.15 82.691986 
" clip-path="url(#p65101cfb66)" style="fill: none; stroke: #ffcc00; stroke-width: 1.5; stroke-linecap: square"/>
   </g>
   <g id="patch_3">
    <path d="M 11.7 96.12 
L 11.7 12.96 
" style="fill: none; stroke: #000000; stroke-width: 0.8; stroke-linejoin: miter; stroke-linecap: square"/>
   </g>
   <g id="patch_4">
    <path d="M 11.7 96.12 
L 84.24 96.12 
" style="fill: none; stroke: #000000; stroke-width: 0.8; stroke-linejoin: miter; stroke-linecap: square"/>
   </g>
   <g id="PathCollection_1">
    <defs>
     <path id="C0_0_01dd7d56ca" d="M 0 1.5 
C 0.397805 1.5 0.77937 1.341951 1.06066 1.06066 
C 1.341951 0.77937 1.5 0.397805 1.5 -0 
C 1.5 -0.397805 1.341951 -0.77937 1.06066 -1.06066 
C 0.77937 -1.341951 0.397805 -1.5 0 -1.5 
C -0.397805 -1.5 -0.77937 -1.341951 -1.06066 -1.06066 
C -1.341951 -0.77937 -1.5 -0.397805 -1.5 0 
C -1.5 0.397805 -1.341951 0.77937 -1.06066 1.06066 
C -0.77937 1.341951 -0.397805 1.5 0 1.5 
z
"/>
    </defs>
    <g clip-path="url(#p65101cfb66)">
     <use xlink:href="#C0_0_01dd7d56ca" x="24.639837" y="49.248412" style="fill-opacity: 0.3"/>
    </g>
    <g clip-path="url(#p65101cfb66)">
     <use xlink:href="#C0_0_01dd7d56ca" x="21.588228" y="38.234741" style="fill-opacity: 0.3"/>
    </g>
    <g clip-path="url(#p65101cfb66)">
     <use xlink:href="#C0_0_01dd7d56ca" x="23.032217" y="21.619136" style="fill-opacity: 0.3"/>
    </g>
    <g clip-path="url(#p65101cfb66)">
     <use xlink:href="#C0_0_01dd7d56ca" x="24.486479" y="44.485797" style="fill-opacity: 0.3"/>
    </g>
    <g clip-path="url(#p65101cfb66)">
     <use xlink:href="#C0_0_01dd7d56ca" x="22.746454" y="28.723281" style="fill-opacity: 0.3"/>
    </g>
    <g clip-path="url(#p65101cfb66)">
     <use xlink:href="#C0_0_01dd7d56ca" x="25.962998" y="50.989769" style="fill-opacity: 0.3"/>
    </g>
    <g clip-path="url(#p65101cfb66)">
     <use xlink:href="#C0_0_01dd7d56ca" x="22.134493" y="50.421218" style="fill-opacity: 0.3"/>
    </g>
    <g clip-path="url(#p65101cfb66)">
     <use xlink:href="#C0_0_01dd7d56ca" x="23.248237" y="58.140672" style="fill-opacity: 0.3"/>
    </g>
   </g>
   <g id="PathCollection_2">
    <defs>
     <path id="C1_0_121c549737" d="M 0 1.5 
C 0.397805 1.5 0.77937 1.341951 1.06066 1.06066 
C 1.341951 0.77937 1.5 0.397805 1.5 -0 
C 1.5 -0.397805 1.341951 -0.77937 1.06066 -1.06066 
C 0.77937 -1.341951 0.397805 -1.5 0 -1.5 
C -0.397805 -1.5 -0.77937 -1.341951 -1.06066 -1.06066 
C -1.341951 -0.77937 -1.5 -0.397805 -1.5 0 
C -1.5 0.397805 -1.341951 0.77937 -1.06066 1.06066 
C -0.77937 1.341951 -0.397805 1.5 0 1.5 
z
"/>
    </defs>
    <g clip-path="url(#p65101cfb66)">
     <use xlink:href="#C1_0_121c549737" x="48.405209" y="53.532997" style="fill: #dd0000; fill-opacity: 0.3"/>
    </g>
    <g clip-path="url(#p65101cfb66)">
     <use xlink:href="#C1_0_121c549737" x="47.91098" y="61.806466" style="fill: #dd0000; fill-opacity: 0.3"/>
    </g>
    <g clip-path="url(#p65101cfb66)">
     <use xlink:href="#C1_0_121c549737" x="46.395125" y="54.701883" style="fill: #dd0000; fill-opacity: 0.3"/>
    </g>
    <g clip-path="url(#p65101cfb66)">
     <use xlink:href="#C1_0_121c549737" x="46.607131" y="49.188867" style="fill: #dd0000; fill-opacity: 0.3"/>
    </g>
    <g clip-path="url(#p65101cfb66)">
     <use xlink:href="#C1_0_121c549737" x="48.679661" y="66.572828" style="fill: #dd0000; fill-opacity: 0.3"/>
    </g>
    <g clip-path="url(#p65101cfb66)">
     <use xlink:href="#C1_0_121c549737" x="46.760185" y="65.348628" style="fill: #dd0000; fill-opacity: 0.3"/>
    </g>
    <g clip-path="url(#p65101cfb66)">
     <use xlink:href="#C1_0_121c549737" x="47.535959" y="74.67344" style="fill: #dd0000; fill-opacity: 0.3"/>
    </g>
    <g clip-path="url(#p65101cfb66)">
     <use xlink:href="#C1_0_121c549737" x="45.782802" y="60.528875" style="fill: #dd0000; fill-opacity: 0.3"/>
    </g>
   </g>
   <g id="PathCollection_3">
    <defs>
     <path id="C2_0_acb550f042" d="M 0 1.5 
C 0.397805 1.5 0.77937 1.341951 1.06066 1.06066 
C 1.341951 0.77937 1.5 0.397805 1.5 -0 
C 1.5 -0.397805 1.341951 -0.77937 1.06066 -1.06066 
C 0.77937 -1.341951 0.397805 -1.5 0 -1.5 
C -0.397805 -1.5 -0.77937 -1.341951 -1.06066 -1.06066 
C -1.341951 -0.77937 -1.5 -0.397805 -1.5 0 
C -1.5 0.397805 -1.341951 0.77937 -1.06066 1.06066 
C -0.77937 1.341951 -0.397805 1.5 0 1.5 
z
"/>
    </defs>
    <g clip-path="url(#p65101cfb66)">
     <use xlink:href="#C2_0_acb550f042" x="71.29668" y="90.479221" style="fill: #ffcc00; fill-opacity: 0.3"/>
    </g>
    <g clip-path="url(#p65101cfb66)">
     <use xlink:href="#C2_0_acb550f042" x="71.145088" y="86.463355" style="fill: #ffcc00; fill-opacity: 0.3"/>
    </g>
    <g clip-path="url(#p65101cfb66)">
     <use xlink:href="#C2_0_acb550f042" x="71.886005" y="86.521805" style="fill: #ffcc00; fill-opacity: 0.3"/>
    </g>
    <g clip-path="url(#p65101cfb66)">
     <use xlink:href="#C2_0_acb550f042" x="70.023489" y="83.281856" style="fill: #ffcc00; fill-opacity: 0.3"/>
    </g>
    <g clip-path="url(#p65101cfb66)">
     <use xlink:href="#C2_0_acb550f042" x="73.381431" y="77.515396" style="fill: #ffcc00; fill-opacity: 0.3"/>
    </g>
   </g>
   <g id="text_11">
    <text style="font: 8px 'Arial', sans-serif; text-anchor: middle" x="47.97" y="6.96" transform="rotate(-0 47.97 6.96)">Signal Correlations</text>
   </g>
  </g>
 </g>
 <defs>
  <clipPath id="p65101cfb66">
   <rect x="11.7" y="12.96" width="72.54" height="83.16"/>
  </clipPath>
 </defs>
</svg>
