<?xml version="1.0" encoding="utf-8" standalone="no"?>
<!DOCTYPE svg PUBLIC "-//W3C//DTD SVG 1.1//EN"
  "http://www.w3.org/Graphics/SVG/1.1/DTD/svg11.dtd">
<svg xmlns:xlink="http://www.w3.org/1999/xlink" width="93.6pt" height="108pt" viewBox="0 0 93.6 108" xmlns="http://www.w3.org/2000/svg" version="1.1">
 <metadata>
  <rdf:RDF xmlns:dc="http://purl.org/dc/elements/1.1/" xmlns:cc="http://creativecommons.org/ns#" xmlns:rdf="http://www.w3.org/1999/02/22-rdf-syntax-ns#">
   <cc:Work>
    <dc:type rdf:resource="http://purl.org/dc/dcmitype/StillImage"/>
    <dc:date>2024-09-12T15:12:01.163636</dc:date>
    <dc:format>image/svg+xml</dc:format>
    <dc:creator>
     <cc:Agent>
      <dc:title>Matplotlib v3.8.4, https://matplotlib.org/</dc:title>
     </cc:Agent>
    </dc:creator>
   </cc:Work>
  </rdf:RDF>
 </metadata>
 <defs>
  <style type="text/css">*{stroke-linejoin: round; stroke-linecap: butt}</style>
 </defs>
 <g id="figure_1">
  <g id="patch_1">
   <path d="M 0 108 
L 93.6 108 
L 93.6 0 
L 0 0 
z
" style="fill: #ffffff"/>
  </g>
  <g id="axes_1">
   <g id="patch_2">
    <path d="M 11.7 96.12 
L 84.24 96.12 
L 84.24 12.96 
L 11.7 12.96 
z
" style="fill: #ffffff"/>
   </g>
   <g id="matplotlib.axis_1">
    <g id="xtick_1">
     <g id="line2d_1">
      <defs>
       <path id="mc2b932662e" d="M 0 0 
L 0 2 
" style="stroke: #000000; stroke-width: 0.8"/>
      </defs>
      <g>
       <use xlink:href="#mc2b932662e" x="23.79" y="96.12" style="stroke: #000000; stroke-width: 0.8"/>
      </g>
     </g>
     <g id="text_1">
      <text style="font: 6px 'Arial', sans-serif; text-anchor: middle" x="23.79" y="104.414687" transform="rotate(-0 23.79 104.414687)">ahl B6</text>
     </g>
    </g>
    <g id="xtick_2">
     <g id="line2d_2">
      <g>
       <use xlink:href="#mc2b932662e" x="47.97" y="96.12" style="stroke: #000000; stroke-width: 0.8"/>
      </g>
     </g>
     <g id="text_2">
      <text style="font: 6px 'Arial', sans-serif; text-anchor: middle" x="47.97" y="104.414687" transform="rotate(-0 47.97 104.414687)">Ahl B6</text>
     </g>
    </g>
    <g id="xtick_3">
     <g id="line2d_3">
      <g>
       <use xlink:href="#mc2b932662e" x="72.15" y="96.12" style="stroke: #000000; stroke-width: 0.8"/>
      </g>
     </g>
     <g id="text_3">
      <text style="font: 6px 'Arial', sans-serif" transform="translate(66.061875 104.414687)">Ahl+</text>
      <text style="font: 6px 'Arial', sans-serif" transform="translate(61.478438 110.760813)">CBA.B6</text>
     </g>
    </g>
   </g>
   <g id="matplotlib.axis_2">
    <g id="ytick_1">
     <g id="line2d_4">
      <defs>
       <path id="mc2dcef4f4e" d="M 0 0 
L -2 0 
" style="stroke: #000000; stroke-width: 0.8"/>
      </defs>
      <g>
       <use xlink:href="#mc2dcef4f4e" x="11.7" y="96.12" style="stroke: #000000; stroke-width: 0.8"/>
      </g>
     </g>
     <g id="text_4">
      <text style="font: 6px 'Arial', sans-serif; text-anchor: end" x="7.7" y="98.267344" transform="rotate(-0 7.7 98.267344)">0.00</text>
     </g>
    </g>
    <g id="ytick_2">
     <g id="line2d_5">
      <g>
       <use xlink:href="#mc2dcef4f4e" x="11.7" y="54.54" style="stroke: #000000; stroke-width: 0.8"/>
      </g>
     </g>
     <g id="text_5">
      <text style="font: 6px 'Arial', sans-serif; text-anchor: end" x="7.7" y="56.687344" transform="rotate(-0 7.7 56.687344)">0.01</text>
     </g>
    </g>
    <g id="ytick_3">
     <g id="line2d_6">
      <g>
       <use xlink:href="#mc2dcef4f4e" x="11.7" y="12.96" style="stroke: #000000; stroke-width: 0.8"/>
      </g>
     </g>
     <g id="text_6">
      <text style="font: 6px 'Arial', sans-serif; text-anchor: end" x="7.7" y="15.107344" transform="rotate(-0 7.7 15.107344)">0.02</text>
     </g>
    </g>
    <g id="text_7">
     <text style="font: 7px 'Arial', sans-serif; text-anchor: middle" x="-9.367812" y="54.54" transform="rotate(-90 -9.367812 54.54)">Correlation coefficient</text>
    </g>
   </g>
   <g id="line2d_7">
    <path d="M 47.97 79.592476 
" style="fill: none; stroke: #dd0000; stroke-width: 1.5; stroke-linecap: square"/>
    <defs>
     <path id="m10e02e5088" d="M 0 2 
C 0.530406 2 1.03916 1.789267 1.414214 1.414214 
C 1.789267 1.03916 2 0.530406 2 0 
C 2 -0.530406 1.789267 -1.03916 1.414214 -1.414214 
C 1.03916 -1.789267 0.530406 -2 0 -2 
C -0.530406 -2 -1.03916 -1.789267 -1.414214 -1.414214 
C -1.789267 -1.03916 -2 -0.530406 -2 0 
C -2 0.530406 -1.789267 1.03916 -1.414214 1.414214 
C -1.03916 1.789267 -0.530406 2 0 2 
z
" style="stroke: #dd0000; stroke-width: 1.125"/>
    </defs>
    <g>
     <use xlink:href="#m10e02e5088" x="47.97" y="79.592476" style="fill: #dd0000; stroke: #dd0000; stroke-width: 1.125"/>
    </g>
   </g>
   <g id="line2d_8">
    <path clip-path="url(#p2656f19d14)" style="fill: none; stroke: #dd0000; stroke-width: 1.5; stroke-linecap: square"/>
   </g>
   <g id="line2d_9">
    <path d="M 47.97 81.829977 
L 47.97 77.354975 
" clip-path="url(#p2656f19d14)" style="fill: none; stroke: #dd0000; stroke-width: 1.5; stroke-linecap: square"/>
   </g>
   <g id="line2d_10">
    <path clip-path="url(#p2656f19d14)" style="fill: none; stroke: #dd0000; stroke-width: 1.5; stroke-linecap: square"/>
   </g>
   <g id="line2d_11">
    <path d="M 23.79 77.801643 
" style="fill: none; stroke: #000000; stroke-width: 1.5; stroke-linecap: square"/>
    <defs>
     <path id="mc00bf506f3" d="M 0 2 
C 0.530406 2 1.03916 1.789267 1.414214 1.414214 
C 1.789267 1.03916 2 0.530406 2 0 
C 2 -0.530406 1.789267 -1.03916 1.414214 -1.414214 
C 1.03916 -1.789267 0.530406 -2 0 -2 
C -0.530406 -2 -1.03916 -1.789267 -1.414214 -1.414214 
C -1.789267 -1.03916 -2 -0.530406 -2 0 
C -2 0.530406 -1.789267 1.03916 -1.414214 1.414214 
C -1.03916 1.789267 -0.530406 2 0 2 
z
" style="stroke: #000000; stroke-width: 1.125"/>
    </defs>
    <g>
     <use xlink:href="#mc00bf506f3" x="23.79" y="77.801643" style="stroke: #000000; stroke-width: 1.125"/>
    </g>
   </g>
   <g id="line2d_12">
    <path d="M 23.79 80.817578 
L 23.79 74.785707 
" clip-path="url(#p2656f19d14)" style="fill: none; stroke: #000000; stroke-width: 1.5; stroke-linecap: square"/>
   </g>
   <g id="line2d_13">
    <path clip-path="url(#p2656f19d14)" style="fill: none; stroke: #000000; stroke-width: 1.5; stroke-linecap: square"/>
   </g>
   <g id="line2d_14">
    <path clip-path="url(#p2656f19d14)" style="fill: none; stroke: #000000; stroke-width: 1.5; stroke-linecap: square"/>
   </g>
   <g id="line2d_15">
    <path d="M 72.15 79.139028 
" style="fill: none; stroke: #ffcc00; stroke-width: 1.5; stroke-linecap: square"/>
    <defs>
     <path id="m450fa0e473" d="M 0 2 
C 0.530406 2 1.03916 1.789267 1.414214 1.414214 
C 1.789267 1.03916 2 0.530406 2 0 
C 2 -0.530406 1.789267 -1.03916 1.414214 -1.414214 
C 1.03916 -1.789267 0.530406 -2 0 -2 
C -0.530406 -2 -1.03916 -1.789267 -1.414214 -1.414214 
C -1.789267 -1.03916 -2 -0.530406 -2 0 
C -2 0.530406 -1.789267 1.03916 -1.414214 1.414214 
C -1.03916 1.789267 -0.530406 2 0 2 
z
" style="stroke: #ffcc00; stroke-width: 1.125"/>
    </defs>
    <g>
     <use xlink:href="#m450fa0e473" x="72.15" y="79.139028" style="fill: #ffcc00; stroke: #ffcc00; stroke-width: 1.125"/>
    </g>
   </g>
   <g id="line2d_16">
    <path clip-path="url(#p2656f19d14)" style="fill: none; stroke: #ffcc00; stroke-width: 1.5; stroke-linecap: square"/>
   </g>
   <g id="line2d_17">
    <path clip-path="url(#p2656f19d14)" style="fill: none; stroke: #ffcc00; stroke-width: 1.5; stroke-linecap: square"/>
   </g>
   <g id="line2d_18">
    <path d="M 72.15 83.930986 
L 72.15 74.347069 
" clip-path="url(#p2656f19d14)" style="fill: none; stroke: #ffcc00; stroke-width: 1.5; stroke-linecap: square"/>
   </g>
   <g id="patch_3">
    <path d="M 11.7 96.12 
L 11.7 12.96 
" style="fill: none; stroke: #000000; stroke-width: 0.8; stroke-linejoin: miter; stroke-linecap: square"/>
   </g>
   <g id="patch_4">
    <path d="M 11.7 96.12 
L 84.24 96.12 
" style="fill: none; stroke: #000000; stroke-width: 0.8; stroke-linejoin: miter; stroke-linecap: square"/>
   </g>
   <g id="PathCollection_1">
    <defs>
     <path id="C0_0_cf11a4891e" d="M 0 1.5 
C 0.397805 1.5 0.77937 1.341951 1.06066 1.06066 
C 1.341951 0.77937 1.5 0.397805 1.5 -0 
C 1.5 -0.397805 1.341951 -0.77937 1.06066 -1.06066 
C 0.77937 -1.341951 0.397805 -1.5 0 -1.5 
C -0.397805 -1.5 -0.77937 -1.341951 -1.06066 -1.06066 
C -1.341951 -0.77937 -1.5 -0.397805 -1.5 0 
C -1.5 0.397805 -1.341951 0.77937 -1.06066 1.06066 
C -0.77937 1.341951 -0.397805 1.5 0 1.5 
z
"/>
    </defs>
    <use xlink:href="#C0_0_cf11a4891e" x="24.639837" y="88.124443" style="fill-opacity: 0.3"/>
    <use xlink:href="#C0_0_cf11a4891e" x="21.588228" y="86.472537" style="fill-opacity: 0.3"/>
    <use xlink:href="#C0_0_cf11a4891e" x="23.032217" y="68.577612" style="fill-opacity: 0.3"/>
    <use xlink:href="#C0_0_cf11a4891e" x="24.486479" y="70.906668" style="fill-opacity: 0.3"/>
    <use xlink:href="#C0_0_cf11a4891e" x="22.746454" y="65.72234" style="fill-opacity: 0.3"/>
    <use xlink:href="#C0_0_cf11a4891e" x="25.962998" y="84.573237" style="fill-opacity: 0.3"/>
    <use xlink:href="#C0_0_cf11a4891e" x="22.134493" y="79.390091" style="fill-opacity: 0.3"/>
    <use xlink:href="#C0_0_cf11a4891e" x="23.248237" y="78.646214" style="fill-opacity: 0.3"/>
   </g>
   <g id="PathCollection_2">
    <defs>
     <path id="C1_0_cdcb3d3e07" d="M 0 1.5 
C 0.397805 1.5 0.77937 1.341951 1.06066 1.06066 
C 1.341951 0.77937 1.5 0.397805 1.5 -0 
C 1.5 -0.397805 1.341951 -0.77937 1.06066 -1.06066 
C 0.77937 -1.341951 0.397805 -1.5 0 -1.5 
C -0.397805 -1.5 -0.77937 -1.341951 -1.06066 -1.06066 
C -1.341951 -0.77937 -1.5 -0.397805 -1.5 0 
C -1.5 0.397805 -1.341951 0.77937 -1.06066 1.06066 
C -0.77937 1.341951 -0.397805 1.5 0 1.5 
z
"/>
    </defs>
    <use xlink:href="#C1_0_cdcb3d3e07" x="48.405209" y="73.445639" style="fill: #dd0000; fill-opacity: 0.3"/>
    <use xlink:href="#C1_0_cdcb3d3e07" x="47.91098" y="78.46358" style="fill: #dd0000; fill-opacity: 0.3"/>
    <use xlink:href="#C1_0_cdcb3d3e07" x="46.395125" y="81.173526" style="fill: #dd0000; fill-opacity: 0.3"/>
    <use xlink:href="#C1_0_cdcb3d3e07" x="46.607131" y="83.612271" style="fill: #dd0000; fill-opacity: 0.3"/>
    <use xlink:href="#C1_0_cdcb3d3e07" x="48.679661" y="85.255196" style="fill: #dd0000; fill-opacity: 0.3"/>
    <use xlink:href="#C1_0_cdcb3d3e07" x="46.760185" y="67.259466" style="fill: #dd0000; fill-opacity: 0.3"/>
    <use xlink:href="#C1_0_cdcb3d3e07" x="47.535959" y="82.413764" style="fill: #dd0000; fill-opacity: 0.3"/>
    <use xlink:href="#C1_0_cdcb3d3e07" x="45.782802" y="85.116366" style="fill: #dd0000; fill-opacity: 0.3"/>
   </g>
   <g id="PathCollection_3">
    <defs>
     <path id="C2_0_6f4246089f" d="M 0 1.5 
C 0.397805 1.5 0.77937 1.341951 1.06066 1.06066 
C 1.341951 0.77937 1.5 0.397805 1.5 -0 
C 1.5 -0.397805 1.341951 -0.77937 1.06066 -1.06066 
C 0.77937 -1.341951 0.397805 -1.5 0 -1.5 
C -0.397805 -1.5 -0.77937 -1.341951 -1.06066 -1.06066 
C -1.341951 -0.77937 -1.5 -0.397805 -1.5 0 
C -1.5 0.397805 -1.341951 0.77937 -1.06066 1.06066 
C -0.77937 1.341951 -0.397805 1.5 0 1.5 
z
"/>
    </defs>
    <use xlink:href="#C2_0_6f4246089f" x="71.29668" y="85.63312" style="fill: #ffcc00; fill-opacity: 0.3"/>
    <use xlink:href="#C2_0_6f4246089f" x="71.145088" y="87.258966" style="fill: #ffcc00; fill-opacity: 0.3"/>
    <use xlink:href="#C2_0_6f4246089f" x="71.886005" y="62.904134" style="fill: #ffcc00; fill-opacity: 0.3"/>
    <use xlink:href="#C2_0_6f4246089f" x="70.023489" y="73.381913" style="fill: #ffcc00; fill-opacity: 0.3"/>
    <use xlink:href="#C2_0_6f4246089f" x="73.381431" y="86.517005" style="fill: #ffcc00; fill-opacity: 0.3"/>
   </g>
   <g id="text_8">
    <text style="font: 8px 'Arial', sans-serif; text-anchor: middle" x="47.97" y="6.96" transform="rotate(-0 47.97 6.96)">Noise Correlations</text>
   </g>
  </g>
 </g>
 <defs>
  <clipPath id="p2656f19d14">
   <rect x="11.7" y="12.96" width="72.54" height="83.16"/>
  </clipPath>
 </defs>
</svg>
