<?xml version="1.0" encoding="utf-8" standalone="no"?>
<!DOCTYPE svg PUBLIC "-//W3C//DTD SVG 1.1//EN"
  "http://www.w3.org/Graphics/SVG/1.1/DTD/svg11.dtd">
<svg xmlns:xlink="http://www.w3.org/1999/xlink" width="100.8pt" height="86.4pt" viewBox="0 0 100.8 86.4" xmlns="http://www.w3.org/2000/svg" version="1.1">
 <metadata>
  <rdf:RDF xmlns:dc="http://purl.org/dc/elements/1.1/" xmlns:cc="http://creativecommons.org/ns#" xmlns:rdf="http://www.w3.org/1999/02/22-rdf-syntax-ns#">
   <cc:Work>
    <dc:type rdf:resource="http://purl.org/dc/dcmitype/StillImage"/>
    <dc:date>2024-09-12T13:35:18.893929</dc:date>
    <dc:format>image/svg+xml</dc:format>
    <dc:creator>
     <cc:Agent>
      <dc:title>Matplotlib v3.8.4, https://matplotlib.org/</dc:title>
     </cc:Agent>
    </dc:creator>
   </cc:Work>
  </rdf:RDF>
 </metadata>
 <defs>
  <style type="text/css">*{stroke-linejoin: round; stroke-linecap: butt}</style>
 </defs>
 <g id="figure_1">
  <g id="patch_1">
   <path d="M 0 86.4 
L 100.8 86.4 
L 100.8 0 
L 0 0 
L 0 86.4 
z
" style="fill: none"/>
  </g>
  <g id="axes_1">
   <g id="patch_2">
    <path d="M 12.6 76.896 
L 90.72 76.896 
L 90.72 10.368 
L 12.6 10.368 
L 12.6 76.896 
z
" style="fill: none"/>
   </g>
   <g id="matplotlib.axis_1">
    <g id="xtick_1">
     <g id="line2d_1">
      <defs>
       <path id="m82f124b27f" d="M 0 0 
L 0 2 
" style="stroke: #000000; stroke-width: 0.8"/>
      </defs>
      <g>
       <use xlink:href="#m82f124b27f" x="20.412" y="76.896" style="stroke: #000000; stroke-width: 0.8"/>
      </g>
     </g>
     <g id="text_1">
      <text style="font: 6px 'Arial', sans-serif; text-anchor: middle" x="20.412" y="85.190687" transform="rotate(-0 20.412 85.190687)">4</text>
     </g>
    </g>
    <g id="xtick_2">
     <g id="line2d_2">
      <g>
       <use xlink:href="#m82f124b27f" x="36.036" y="76.896" style="stroke: #000000; stroke-width: 0.8"/>
      </g>
     </g>
     <g id="text_2">
      <text style="font: 6px 'Arial', sans-serif; text-anchor: middle" x="36.036" y="85.190687" transform="rotate(-0 36.036 85.190687)">8</text>
     </g>
    </g>
    <g id="xtick_3">
     <g id="line2d_3">
      <g>
       <use xlink:href="#m82f124b27f" x="51.66" y="76.896" style="stroke: #000000; stroke-width: 0.8"/>
      </g>
     </g>
     <g id="text_3">
      <text style="font: 6px 'Arial', sans-serif; text-anchor: middle" x="51.66" y="85.190687" transform="rotate(-0 51.66 85.190687)">16</text>
     </g>
    </g>
    <g id="xtick_4">
     <g id="line2d_4">
      <g>
       <use xlink:href="#m82f124b27f" x="67.284" y="76.896" style="stroke: #000000; stroke-width: 0.8"/>
      </g>
     </g>
     <g id="text_4">
      <text style="font: 6px 'Arial', sans-serif; text-anchor: middle" x="67.284" y="85.190687" transform="rotate(-0 67.284 85.190687)">32</text>
     </g>
    </g>
    <g id="xtick_5">
     <g id="line2d_5">
      <g>
       <use xlink:href="#m82f124b27f" x="82.908" y="76.896" style="stroke: #000000; stroke-width: 0.8"/>
      </g>
     </g>
     <g id="text_5">
      <text style="font: 6px 'Arial', sans-serif; text-anchor: middle" x="82.908" y="85.190687" transform="rotate(-0 82.908 85.190687)">64</text>
     </g>
    </g>
    <g id="text_6">
     <text style="font: 7px 'Arial', sans-serif; text-anchor: middle" x="51.66" y="91.478969" transform="rotate(-0 51.66 91.478969)">Frequency (kHz)</text>
    </g>
   </g>
   <g id="matplotlib.axis_2">
    <g id="ytick_1">
     <g id="line2d_6">
      <defs>
       <path id="mee50d7d481" d="M 0 0 
L -2 0 
" style="stroke: #000000; stroke-width: 0.8"/>
      </defs>
      <g>
       <use xlink:href="#mee50d7d481" x="12.6" y="76.896" style="stroke: #000000; stroke-width: 0.8"/>
      </g>
     </g>
     <g id="text_7">
      <text style="font: 6px 'Arial', sans-serif; text-anchor: end" x="8.6" y="79.043344" transform="rotate(-0 8.6 79.043344)">0</text>
     </g>
    </g>
    <g id="ytick_2">
     <g id="line2d_7">
      <g>
       <use xlink:href="#mee50d7d481" x="12.6" y="65.808" style="stroke: #000000; stroke-width: 0.8"/>
      </g>
     </g>
     <g id="text_8">
      <text style="font: 6px 'Arial', sans-serif; text-anchor: end" x="8.6" y="67.955344" transform="rotate(-0 8.6 67.955344)">20</text>
     </g>
    </g>
    <g id="ytick_3">
     <g id="line2d_8">
      <g>
       <use xlink:href="#mee50d7d481" x="12.6" y="54.72" style="stroke: #000000; stroke-width: 0.8"/>
      </g>
     </g>
     <g id="text_9">
      <text style="font: 6px 'Arial', sans-serif; text-anchor: end" x="8.6" y="56.867344" transform="rotate(-0 8.6 56.867344)">40</text>
     </g>
    </g>
    <g id="ytick_4">
     <g id="line2d_9">
      <g>
       <use xlink:href="#mee50d7d481" x="12.6" y="43.632" style="stroke: #000000; stroke-width: 0.8"/>
      </g>
     </g>
     <g id="text_10">
      <text style="font: 6px 'Arial', sans-serif; text-anchor: end" x="8.6" y="45.779344" transform="rotate(-0 8.6 45.779344)">60</text>
     </g>
    </g>
    <g id="ytick_5">
     <g id="line2d_10">
      <g>
       <use xlink:href="#mee50d7d481" x="12.6" y="32.544" style="stroke: #000000; stroke-width: 0.8"/>
      </g>
     </g>
     <g id="text_11">
      <text style="font: 6px 'Arial', sans-serif; text-anchor: end" x="8.6" y="34.691344" transform="rotate(-0 8.6 34.691344)">80</text>
     </g>
    </g>
    <g id="ytick_6">
     <g id="line2d_11">
      <g>
       <use xlink:href="#mee50d7d481" x="12.6" y="21.456" style="stroke: #000000; stroke-width: 0.8"/>
      </g>
     </g>
     <g id="text_12">
      <text style="font: 6px 'Arial', sans-serif; text-anchor: end" x="8.6" y="23.603344" transform="rotate(-0 8.6 23.603344)">100</text>
     </g>
    </g>
    <g id="ytick_7">
     <g id="line2d_12">
      <g>
       <use xlink:href="#mee50d7d481" x="12.6" y="10.368" style="stroke: #000000; stroke-width: 0.8"/>
      </g>
     </g>
     <g id="text_13">
      <text style="font: 6px 'Arial', sans-serif; text-anchor: end" x="8.6" y="12.515344" transform="rotate(-0 8.6 12.515344)">120</text>
     </g>
    </g>
    <g id="text_14">
     <text style="font: 7px 'Arial', sans-serif; text-anchor: middle" x="-2.882969" y="43.632" transform="rotate(-90 -2.882969 43.632)">Threshold (dB SPL)</text>
    </g>
   </g>
   <g id="line2d_13">
    <path d="M 20.412 52.5024 
L 36.036 58.0464 
L 51.66 56.9376 
L 67.284 33.6528 
L 82.908 31.4352 
" clip-path="url(#p054d69b089)" style="fill: none; stroke-dasharray: 1,1.65; stroke-dashoffset: 0; stroke: #000000"/>
   </g>
   <g id="line2d_14">
    <path d="M 20.412 57.24 
L 36.036 59.256 
L 51.66 60.264 
L 67.284 59.256 
L 82.908 58.248 
" clip-path="url(#p054d69b089)" style="fill: none; stroke: #dd0000; stroke-linecap: square"/>
    <defs>
     <path id="m209dcf38e3" d="M 0 1.5 
C 0.397805 1.5 0.77937 1.341951 1.06066 1.06066 
C 1.341951 0.77937 1.5 0.397805 1.5 0 
C 1.5 -0.397805 1.341951 -0.77937 1.06066 -1.06066 
C 0.77937 -1.341951 0.397805 -1.5 0 -1.5 
C -0.397805 -1.5 -0.77937 -1.341951 -1.06066 -1.06066 
C -1.341951 -0.77937 -1.5 -0.397805 -1.5 0 
C -1.5 0.397805 -1.341951 0.77937 -1.06066 1.06066 
C -0.77937 1.341951 -0.397805 1.5 0 1.5 
z
" style="stroke: #dd0000; stroke-width: 0.75"/>
    </defs>
    <g clip-path="url(#p054d69b089)">
     <use xlink:href="#m209dcf38e3" x="20.412" y="57.24" style="fill: #dd0000; stroke: #dd0000; stroke-width: 0.75"/>
     <use xlink:href="#m209dcf38e3" x="36.036" y="59.256" style="fill: #dd0000; stroke: #dd0000; stroke-width: 0.75"/>
     <use xlink:href="#m209dcf38e3" x="51.66" y="60.264" style="fill: #dd0000; stroke: #dd0000; stroke-width: 0.75"/>
     <use xlink:href="#m209dcf38e3" x="67.284" y="59.256" style="fill: #dd0000; stroke: #dd0000; stroke-width: 0.75"/>
     <use xlink:href="#m209dcf38e3" x="82.908" y="58.248" style="fill: #dd0000; stroke: #dd0000; stroke-width: 0.75"/>
    </g>
   </g>
   <g id="line2d_15">
    <path d="M 20.412 58.801587 
L 20.412 55.678413 
" clip-path="url(#p054d69b089)" style="fill: none; stroke: #dd0000; stroke-linecap: square"/>
   </g>
   <g id="line2d_16">
    <path d="M 36.036 60.264 
L 36.036 58.248 
" clip-path="url(#p054d69b089)" style="fill: none; stroke: #dd0000; stroke-linecap: square"/>
   </g>
   <g id="line2d_17">
    <path d="M 51.66 60.264 
L 51.66 60.264 
" clip-path="url(#p054d69b089)" style="fill: none; stroke: #dd0000; stroke-linecap: square"/>
   </g>
   <g id="line2d_18">
    <path d="M 67.284 60.264 
L 67.284 58.248 
" clip-path="url(#p054d69b089)" style="fill: none; stroke: #dd0000; stroke-linecap: square"/>
   </g>
   <g id="line2d_19">
    <path d="M 82.908 59.600374 
L 82.908 56.895626 
" clip-path="url(#p054d69b089)" style="fill: none; stroke: #dd0000; stroke-linecap: square"/>
   </g>
   <g id="patch_3">
    <path d="M 12.6 76.896 
L 12.6 10.368 
" style="fill: none; stroke: #000000; stroke-width: 0.8; stroke-linejoin: miter; stroke-linecap: square"/>
   </g>
   <g id="patch_4">
    <path d="M 12.6 76.896 
L 90.72 76.896 
" style="fill: none; stroke: #000000; stroke-width: 0.8; stroke-linejoin: miter; stroke-linecap: square"/>
   </g>
   <g id="PathCollection_1">
    <defs>
     <path id="mf18943de54" d="M 0 1 
C 0.265203 1 0.51958 0.894634 0.707107 0.707107 
C 0.894634 0.51958 1 0.265203 1 0 
C 1 -0.265203 0.894634 -0.51958 0.707107 -0.707107 
C 0.51958 -0.894634 0.265203 -1 0 -1 
C -0.265203 -1 -0.51958 -0.894634 -0.707107 -0.707107 
C -0.894634 -0.51958 -1 -0.265203 -1 0 
C -1 0.265203 -0.894634 0.51958 -0.707107 0.707107 
C -0.51958 0.894634 -0.265203 1 0 1 
z
"/>
    </defs>
    <g clip-path="url(#p054d69b089)">
     <use xlink:href="#mf18943de54" x="19.261496" y="60.264" style="fill: #dd0000; fill-opacity: 0.2"/>
     <use xlink:href="#mf18943de54" x="21.380392" y="60.264" style="fill: #dd0000; fill-opacity: 0.2"/>
     <use xlink:href="#mf18943de54" x="19.959262" y="49.176" style="fill: #dd0000; fill-opacity: 0.2"/>
     <use xlink:href="#mf18943de54" x="21.239856" y="49.176" style="fill: #dd0000; fill-opacity: 0.2"/>
     <use xlink:href="#mf18943de54" x="21.091239" y="60.264" style="fill: #dd0000; fill-opacity: 0.2"/>
     <use xlink:href="#mf18943de54" x="20.573626" y="60.264" style="fill: #dd0000; fill-opacity: 0.2"/>
     <use xlink:href="#mf18943de54" x="19.976974" y="60.264" style="fill: #dd0000; fill-opacity: 0.2"/>
     <use xlink:href="#mf18943de54" x="19.102329" y="60.264" style="fill: #dd0000; fill-opacity: 0.2"/>
     <use xlink:href="#mf18943de54" x="19.609664" y="60.264" style="fill: #dd0000; fill-opacity: 0.2"/>
     <use xlink:href="#mf18943de54" x="19.692893" y="49.176" style="fill: #dd0000; fill-opacity: 0.2"/>
     <use xlink:href="#mf18943de54" x="20.272092" y="60.264" style="fill: #dd0000; fill-opacity: 0.2"/>
    </g>
   </g>
   <g id="PathCollection_2">
    <g clip-path="url(#p054d69b089)">
     <use xlink:href="#mf18943de54" x="35.584693" y="60.264" style="fill: #dd0000; fill-opacity: 0.2"/>
     <use xlink:href="#mf18943de54" x="36.461545" y="60.264" style="fill: #dd0000; fill-opacity: 0.2"/>
     <use xlink:href="#mf18943de54" x="34.491919" y="60.264" style="fill: #dd0000; fill-opacity: 0.2"/>
     <use xlink:href="#mf18943de54" x="35.818094" y="60.264" style="fill: #dd0000; fill-opacity: 0.2"/>
     <use xlink:href="#mf18943de54" x="35.164703" y="60.264" style="fill: #dd0000; fill-opacity: 0.2"/>
     <use xlink:href="#mf18943de54" x="37.498089" y="60.264" style="fill: #dd0000; fill-opacity: 0.2"/>
     <use xlink:href="#mf18943de54" x="35.418145" y="60.264" style="fill: #dd0000; fill-opacity: 0.2"/>
     <use xlink:href="#mf18943de54" x="35.092481" y="60.264" style="fill: #dd0000; fill-opacity: 0.2"/>
     <use xlink:href="#mf18943de54" x="36.517119" y="49.176" style="fill: #dd0000; fill-opacity: 0.2"/>
     <use xlink:href="#mf18943de54" x="36.043989" y="60.264" style="fill: #dd0000; fill-opacity: 0.2"/>
     <use xlink:href="#mf18943de54" x="34.566893" y="60.264" style="fill: #dd0000; fill-opacity: 0.2"/>
    </g>
   </g>
   <g id="PathCollection_3">
    <g clip-path="url(#p054d69b089)">
     <use xlink:href="#mf18943de54" x="50.365518" y="60.264" style="fill: #dd0000; fill-opacity: 0.2"/>
     <use xlink:href="#mf18943de54" x="51.916584" y="60.264" style="fill: #dd0000; fill-opacity: 0.2"/>
     <use xlink:href="#mf18943de54" x="50.475293" y="60.264" style="fill: #dd0000; fill-opacity: 0.2"/>
     <use xlink:href="#mf18943de54" x="50.881066" y="60.264" style="fill: #dd0000; fill-opacity: 0.2"/>
     <use xlink:href="#mf18943de54" x="50.631917" y="60.264" style="fill: #dd0000; fill-opacity: 0.2"/>
     <use xlink:href="#mf18943de54" x="53.113296" y="60.264" style="fill: #dd0000; fill-opacity: 0.2"/>
     <use xlink:href="#mf18943de54" x="53.018771" y="60.264" style="fill: #dd0000; fill-opacity: 0.2"/>
     <use xlink:href="#mf18943de54" x="53.01547" y="60.264" style="fill: #dd0000; fill-opacity: 0.2"/>
     <use xlink:href="#mf18943de54" x="50.111411" y="60.264" style="fill: #dd0000; fill-opacity: 0.2"/>
     <use xlink:href="#mf18943de54" x="52.28332" y="60.264" style="fill: #dd0000; fill-opacity: 0.2"/>
     <use xlink:href="#mf18943de54" x="50.128916" y="60.264" style="fill: #dd0000; fill-opacity: 0.2"/>
    </g>
   </g>
   <g id="PathCollection_4">
    <g clip-path="url(#p054d69b089)">
     <use xlink:href="#mf18943de54" x="68.055805" y="60.264" style="fill: #dd0000; fill-opacity: 0.2"/>
     <use xlink:href="#mf18943de54" x="68.638904" y="60.264" style="fill: #dd0000; fill-opacity: 0.2"/>
     <use xlink:href="#mf18943de54" x="67.464217" y="49.176" style="fill: #dd0000; fill-opacity: 0.2"/>
     <use xlink:href="#mf18943de54" x="67.828751" y="60.264" style="fill: #dd0000; fill-opacity: 0.2"/>
     <use xlink:href="#mf18943de54" x="66.151857" y="60.264" style="fill: #dd0000; fill-opacity: 0.2"/>
     <use xlink:href="#mf18943de54" x="68.794416" y="60.264" style="fill: #dd0000; fill-opacity: 0.2"/>
     <use xlink:href="#mf18943de54" x="67.778642" y="60.264" style="fill: #dd0000; fill-opacity: 0.2"/>
     <use xlink:href="#mf18943de54" x="65.771428" y="60.264" style="fill: #dd0000; fill-opacity: 0.2"/>
     <use xlink:href="#mf18943de54" x="66.535358" y="60.264" style="fill: #dd0000; fill-opacity: 0.2"/>
     <use xlink:href="#mf18943de54" x="67.369732" y="60.264" style="fill: #dd0000; fill-opacity: 0.2"/>
     <use xlink:href="#mf18943de54" x="68.471448" y="60.264" style="fill: #dd0000; fill-opacity: 0.2"/>
    </g>
   </g>
   <g id="PathCollection_5">
    <g clip-path="url(#p054d69b089)">
     <use xlink:href="#mf18943de54" x="83.577102" y="60.264" style="fill: #dd0000; fill-opacity: 0.2"/>
     <use xlink:href="#mf18943de54" x="82.401313" y="60.264" style="fill: #dd0000; fill-opacity: 0.2"/>
     <use xlink:href="#mf18943de54" x="84.270344" y="49.176" style="fill: #dd0000; fill-opacity: 0.2"/>
     <use xlink:href="#mf18943de54" x="84.373361" y="60.264" style="fill: #dd0000; fill-opacity: 0.2"/>
     <use xlink:href="#mf18943de54" x="82.673394" y="60.264" style="fill: #dd0000; fill-opacity: 0.2"/>
     <use xlink:href="#mf18943de54" x="83.215371" y="60.264" style="fill: #dd0000; fill-opacity: 0.2"/>
     <use xlink:href="#mf18943de54" x="81.955565" y="60.264" style="fill: #dd0000; fill-opacity: 0.2"/>
     <use xlink:href="#mf18943de54" x="83.904606" y="60.264" style="fill: #dd0000; fill-opacity: 0.2"/>
     <use xlink:href="#mf18943de54" x="82.180658" y="49.176" style="fill: #dd0000; fill-opacity: 0.2"/>
     <use xlink:href="#mf18943de54" x="83.720073" y="60.264" style="fill: #dd0000; fill-opacity: 0.2"/>
     <use xlink:href="#mf18943de54" x="81.606386" y="60.264" style="fill: #dd0000; fill-opacity: 0.2"/>
    </g>
   </g>
  </g>
 </g>
 <defs>
  <clipPath id="p054d69b089">
   <rect x="12.6" y="10.368" width="78.12" height="66.528"/>
  </clipPath>
 </defs>
</svg>
